<svg width="32" height="33" viewBox="0 0 32 33" fill="none" xmlns="http://www.w3.org/2000/svg">
<path d="M15.7497 1.22256C15.9046 1.13314 16.0954 1.13314 16.2503 1.22256L29.1055 8.64451C29.2604 8.73394 29.3558 8.8992 29.3558 9.07805V23.922C29.3558 24.1008 29.2604 24.2661 29.1055 24.3555L16.2503 31.7774C16.0954 31.8669 15.9046 31.8669 15.7497 31.7774L2.8945 24.3555L2.6442 24.789L2.8945 24.3555C2.73961 24.2661 2.6442 24.1008 2.6442 23.922V9.07805C2.6442 8.8992 2.73961 8.73394 2.8945 8.64451L15.7497 1.22256L15.4994 0.789025L15.7497 1.22256Z" fill="#5A5A5A" stroke="#F9F9F9" stroke-width="1.00121"/>
<path d="M7.99023 13.3984V19.3886" stroke="#EFF1F3" stroke-linecap="round" stroke-linejoin="round"/>
<path d="M7.99023 16.3984H9.60297" stroke="#EFF1F3" stroke-linecap="round" stroke-linejoin="round"/>
<path d="M15.4668 10.4062V11.9038" stroke="#EFF1F3" stroke-linecap="round" stroke-linejoin="round"/>
<path d="M22.9039 13.3895H21.8399V14.3783H20.2439L17.5838 11.9062H13.3276L11.7316 13.3895H9.60352V19.3223H12.7956L14.9237 21.2999H20.2439V18.3335H21.8399V19.3223H22.9039C23.4927 19.3223 23.9715 17.9973 23.9715 16.3559C23.9715 14.7145 23.4927 13.3895 22.9039 13.3895Z" stroke="#EFF1F3" stroke-linecap="round" stroke-linejoin="round"/>
<path d="M13.4141 10.4062H17.6658" stroke="#EFF1F3" stroke-linecap="round" stroke-linejoin="round"/>
<path d="M19.7574 7.91619C20.3173 7.58606 20.7853 7.1181 21.1154 6.55816C21.4455 7.1181 21.9135 7.58606 22.4734 7.91619C21.9135 8.24631 21.4455 8.71427 21.1154 9.27421C20.7853 8.71427 20.3173 8.24631 19.7574 7.91619Z" stroke="#EFF1F3"/>
<path d="M8.4388 23.3229C9.21552 22.9049 9.85412 22.2663 10.2721 21.4896C10.69 22.2663 11.3286 22.9049 12.1054 23.3229C11.3286 23.7408 10.69 24.3794 10.2721 25.1561C9.85412 24.3794 9.21552 23.7408 8.4388 23.3229Z" fill="#EFF1F3" stroke="#EFF1F3"/>
</svg>
