<svg width="139" height="73" viewBox="0 0 139 73" fill="none" xmlns="http://www.w3.org/2000/svg">
<path fill-rule="evenodd" clip-rule="evenodd" d="M20.1212 15.5114C12.1351 19.0768 0.386947 26.2401 0.386947 36.344C0.386947 46.448 12.1351 53.6005 20.132 57.1767C34.9972 63.8229 53.3557 66.3004 69.5107 66.3004C85.6658 66.3004 104.014 63.8229 118.889 57.1767C126.876 53.6112 138.624 46.448 138.624 36.344C138.624 26.2401 126.876 19.0876 118.889 15.5114C104.024 8.86519 85.6658 6.38767 69.5107 6.38767C53.3557 6.38767 34.9972 8.86519 20.132 15.5114H20.1212ZM0 36.344C0 56.4119 31.117 72.6881 69.5 72.6881C107.883 72.6881 139 56.4119 139 36.344C139 16.2762 107.883 0 69.5 0C31.117 0 0 16.2654 0 36.344Z" fill="white"/>
<path fill-rule="evenodd" clip-rule="evenodd" d="M127.638 45.6553C125.821 45.763 123.811 45.7307 121.855 45.7307C117.986 45.7307 114.998 45.1275 112.816 43.2317C110.741 41.4112 109.699 38.9876 109.699 35.9392C109.699 33.0954 110.623 30.7795 112.472 28.9806C114.664 26.8478 117.911 26.1476 122.135 26.1476C123.983 26.1476 125.725 26.083 127.584 26.1692L127.498 30.8872C126.219 30.8549 123.124 30.8333 121.748 30.8333C120.114 30.8333 118.781 31.2965 117.771 32.2229C116.75 33.1493 116.234 34.3342 116.234 35.7668C116.234 37.0594 116.567 38.1366 117.223 38.9984C118.168 40.2371 119.727 40.8511 121.887 40.8511C123.306 40.8511 126.273 40.9373 127.627 40.8942V45.6553H127.638ZM43.2512 26.0938H42.6385V45.7415H48.819V33.4293L58.1487 45.7307H64.931V26.0938H58.1917V38.4382L48.819 26.0938H43.2512ZM108.495 45.7523H90.4695V26.1045H108.291V30.7364H98.2837V33.5694H107.85V38.0612H98.2837L98.2622 40.8403H108.473L108.495 45.7523ZM88.438 30.7364H81.5482V45.7523H73.7341V30.7364H66.8442V26.1045H88.4273V30.7364H88.438ZM40.2954 45.7415H37.6835H32.2017C32.2017 39.9463 32.3092 26.1045 32.3092 26.1045H40.2954V45.7523V45.7415ZM30.0843 39.4831C30.0843 41.1527 29.5361 42.5207 28.4505 43.6087C26.7952 45.2568 24.0436 45.72 20.1311 45.72H11.4141L11.5001 41.3682C13.9507 41.4759 16.3476 41.3682 18.7123 41.3682C19.9806 41.3682 20.8728 41.2497 21.4102 41.0019C21.9476 40.7542 22.2163 40.4202 22.2163 39.9894C22.2163 39.4831 21.8616 39.1061 21.1415 38.8691C20.905 38.7937 20.1634 38.6213 18.895 38.3628C16.6378 37.9104 15.0363 37.4041 14.0797 36.844C12.3277 35.8099 11.4571 34.2372 11.4571 32.126C11.4571 30.4025 12.1235 29.0021 13.467 27.9142C15.2513 26.4708 18.0782 26.1692 21.9584 26.1692L30.1273 26.1261L30.052 30.5317C28.171 30.5425 24.6992 30.4779 22.6785 30.4779C21.6144 30.4779 20.862 30.5317 20.4321 30.6502C19.6904 30.8441 19.325 31.2211 19.325 31.8028C19.325 32.2875 19.7012 32.643 20.4643 32.8692C20.8298 32.9769 21.3027 33.0739 21.8616 33.1816C23.7534 33.5263 24.9895 33.8064 25.5914 34.0002C26.9779 34.4311 28.0205 35.0343 28.7407 35.7991C29.6328 36.7363 30.0843 37.975 30.0843 39.5046V39.4831Z" fill="white"/>
</svg>
