<svg width="50" height="51" viewBox="0 0 50 51" fill="none" xmlns="http://www.w3.org/2000/svg">
<path d="M4.34937 13.4602L25 1.53751L45.6506 13.4602V37.3055L25 49.2281L4.34937 37.3055V13.4602Z" stroke="#CE0F2D" stroke-width="2"/>
<path d="M23.8917 24.9321H19.0731L18.8437 24.3948H23.8917V23.3202H18.6142C18.3302 23.324 18.0577 23.4334 17.8494 23.6272C17.8494 23.7807 17.7729 23.8575 17.7729 23.9342H17.6964V24.3948L17.9259 25.0856V25.3159C17.9996 25.4773 18.1182 25.6138 18.2675 25.7092C18.4167 25.8045 18.5903 25.8545 18.7672 25.8531H23.8917C23.8152 25.5461 23.8152 25.1623 23.7387 24.8553M16.4727 24.625L16.7021 24.2413C16.8551 24.1645 16.8551 23.9342 16.7786 23.7807L16.4727 23.4737L12.6484 22.2456C12.2624 22.1181 11.8425 22.1423 11.4734 22.3132C11.1044 22.4841 10.8137 22.7891 10.6598 23.1667C10.5558 23.4615 10.544 23.7813 10.626 24.0831C10.708 24.3848 10.8799 24.6543 11.1188 24.8553H11.1952C11.4777 25.1446 11.8625 25.3101 12.266 25.3159H15.3254C15.5757 25.3282 15.8251 25.2787 16.0518 25.1716C16.2786 25.0645 16.4756 24.9032 16.6256 24.7018L16.4727 24.625ZM11.8836 24.1645C11.8354 24.0848 11.8037 23.996 11.7906 23.9037C11.7774 23.8114 11.7831 23.7173 11.8071 23.6272C11.8574 23.5124 11.9461 23.4189 12.0578 23.3628C12.1696 23.3068 12.2973 23.2917 12.419 23.3202L15.4784 24.318H12.266C12.1948 24.3241 12.1231 24.3134 12.0567 24.2867C11.9903 24.2601 11.931 24.2182 11.8836 24.1645ZM10.8893 18.4845H12.3425L12.1131 18.8683H11.3482C11.2387 18.8698 11.1322 18.832 11.048 18.7616C10.9638 18.6912 10.9075 18.5929 10.8893 18.4845ZM13.7957 31.9169C13.7972 32.0269 13.7595 32.1337 13.6894 32.2182C13.6193 32.3027 13.5213 32.3591 13.4133 32.3775H11.1952C11.0872 32.3591 10.9893 32.3027 10.9191 32.2182C10.849 32.1337 10.8113 32.0269 10.8128 31.9169V30.9191H13.7957V31.9169ZM15.0195 29.9213H10.4304C10.3087 29.9213 10.192 29.8727 10.1059 29.7864C10.0198 29.7 9.97149 29.5829 9.97149 29.4607V22.7829C9.97149 22.5464 10.0355 22.3143 10.1568 22.1115C10.278 21.9087 10.4519 21.7428 10.6598 21.6315L12.1895 20.864L12.419 20.7104L15.1724 15.9515C15.3342 15.7146 15.5511 15.5209 15.8043 15.3871C16.0575 15.2534 16.3395 15.1836 16.6256 15.184H29.0926C29.3788 15.1836 29.6607 15.2534 29.9139 15.3871C30.1672 15.5209 30.3841 15.7146 30.5458 15.9515V16.105L31.4636 15.5678V15.4142C31.2034 15.0202 30.8516 14.6955 30.4385 14.4682C30.0255 14.2409 29.5636 14.1178 29.0926 14.1094H16.6256C16.1546 14.1178 15.6927 14.2409 15.2797 14.4682C14.8667 14.6955 14.5149 15.0202 14.2546 15.4142L12.9544 17.5634H10.8128C10.5694 17.5634 10.3359 17.6605 10.1638 17.8332C9.9917 18.0059 9.895 18.2402 9.895 18.4845C9.88461 18.6824 9.91451 18.8803 9.98287 19.0662C10.0512 19.2521 10.1566 19.4221 10.2926 19.5657C10.4286 19.7094 10.5923 19.8237 10.7738 19.9018C10.9553 19.9798 11.1508 20.0199 11.3482 20.0196H11.4247L10.1245 20.6337C9.73489 20.8411 9.40842 21.1504 9.17954 21.5287C8.95067 21.907 8.8279 22.3403 8.82422 22.7829V29.4607C8.83606 29.7337 8.92028 29.9985 9.06818 30.2279C9.21608 30.4573 9.4223 30.6429 9.66555 30.7656V31.9169C9.66555 32.3037 9.81865 32.6747 10.0912 32.9482C10.3637 33.2217 10.7333 33.3753 11.1188 33.3753H13.4133C13.7987 33.3753 14.1683 33.2217 14.4409 32.9482C14.7134 32.6747 14.8665 32.3037 14.8665 31.9169V30.9191H25.7273C25.5196 30.6031 25.3405 30.2692 25.1919 29.9213H15.0195ZM15.9373 28.1558L16.0902 27.465H24.3506L24.1211 26.3904H15.9373C15.7319 26.3963 15.5334 26.4659 15.3691 26.5896C15.2047 26.7133 15.0826 26.8851 15.0195 27.0813L14.8665 28.1558C14.8349 28.2749 14.8323 28.3998 14.8589 28.52C14.8855 28.6402 14.9406 28.7523 15.0195 28.8467C15.1025 28.948 15.208 29.0285 15.3275 29.0818C15.447 29.1351 15.5772 29.1597 15.7078 29.1537H24.886C24.733 28.8467 24.6565 28.4629 24.5035 28.1558H15.9373Z" fill="#D11F37"/>
<path fill-rule="evenodd" clip-rule="evenodd" d="M23.7389 21.2478V20.25H14.0254V21.1711L23.7389 21.2478Z" fill="#D11F37"/>
<path d="M40.8719 20.7118L33.5294 16.3367C33.433 16.2555 33.3111 16.2109 33.1852 16.2109C33.0593 16.2109 32.9374 16.2555 32.841 16.3367L25.4985 20.7118C25.4047 20.7662 25.3269 20.8445 25.2732 20.9389C25.2194 21.0333 25.1916 21.1404 25.1926 21.2491V23.7821C25.1584 26.3106 25.8748 28.7921 27.2504 30.9108C28.6261 33.0295 30.5988 34.6894 32.9175 35.6794H33.3764C35.7156 34.7099 37.7102 33.0571 39.1014 30.9355C40.4926 28.8139 41.2161 26.3215 41.1778 23.7821V21.2491C41.1788 21.1404 41.151 21.0333 41.0972 20.9389C41.0435 20.8445 40.9657 20.7662 40.8719 20.7118Z" fill="#D11F37"/>
<path d="M36.3598 23.5509C36.2336 23.4376 36.0702 23.375 35.9009 23.375C35.7316 23.375 35.5682 23.4376 35.442 23.5509L31.8472 27.1585L30.9294 26.2374C30.8032 26.1241 30.6398 26.0615 30.4705 26.0615C30.3012 26.0615 30.1378 26.1241 30.0116 26.2374C29.9324 26.2852 29.8669 26.3527 29.8214 26.4334C29.7759 26.5141 29.752 26.6052 29.752 26.6979C29.752 26.7907 29.7759 26.8818 29.8214 26.9625C29.8669 27.0432 29.9324 27.1107 30.0116 27.1585L31.3883 28.5401C31.4359 28.6196 31.5032 28.6853 31.5836 28.731C31.664 28.7766 31.7548 28.8006 31.8472 28.8006C31.9396 28.8006 32.0304 28.7766 32.1108 28.731C32.1912 28.6853 32.2585 28.6196 32.3061 28.5401L36.3598 24.472C36.4727 24.3453 36.5351 24.1814 36.5351 24.0115C36.5351 23.8415 36.4727 23.6776 36.3598 23.5509Z" fill="white"/>
</svg>
