<svg width="50" height="50" viewBox="0 0 50 50" fill="none" xmlns="http://www.w3.org/2000/svg">
<path d="M40.2156 32.8451C40.2156 31.3909 39.7844 29.9692 38.9765 28.7601C38.1685 27.5509 37.0201 26.6084 35.6766 26.0519C34.333 25.4954 32.8546 25.3498 31.4282 25.6335C30.0019 25.9172 28.6917 26.6175 27.6634 27.6458C26.6351 28.6741 25.9348 29.9843 25.6511 31.4106C25.3673 32.837 25.513 34.3154 26.0695 35.659C26.626 37.0026 27.5684 38.1509 28.7776 38.9589C29.9868 39.7668 31.4084 40.1981 32.8627 40.1981C33.8283 40.1981 34.7845 40.0079 35.6766 39.6384C36.5687 39.2688 37.3792 38.7272 38.062 38.0444C38.7448 37.3617 39.2864 36.5511 39.6559 35.659C40.0255 34.7669 40.2156 33.8107 40.2156 32.8451Z" fill="#D1002B"/>
<path d="M17.2891 10.3281H25.7029" stroke="#D1002B" stroke-width="2" stroke-miterlimit="10"/>
<path d="M9.31641 17.7188V29.5974" stroke="#D1002B" stroke-width="2" stroke-miterlimit="10"/>
<path d="M21.5117 13.192V10.3281" stroke="#D1002B" stroke-width="2" stroke-miterlimit="10"/>
<path d="M12.1317 23.6406H9.31641" stroke="#D1002B" stroke-width="2" stroke-miterlimit="10"/>
<path d="M38 28.4155V21.032H34.849V19.5936C34.8491 19.2176 34.6897 18.8565 34.405 18.5877C34.1202 18.3188 33.7327 18.1636 33.3255 18.1553H28.1662V15.4384C28.1662 15.0569 28.002 14.691 27.7098 14.4213C27.4176 14.1515 27.0213 14 26.608 14H17.5014C17.0942 14.0084 16.7067 14.1636 16.4219 14.4324C16.1371 14.7013 15.9777 15.0624 15.9778 15.4384V17.0046H14.5582C14.1449 17.0046 13.7486 17.1561 13.4564 17.4259C13.1642 17.6956 13 18.0614 13 18.4429V30.1096C13.0091 30.4855 13.1772 30.8432 13.4684 31.1061C13.7597 31.3689 14.1508 31.5161 14.5582 31.516H16.3587L20.0983 35H27.2313" stroke="#D1002B" stroke-width="2" stroke-miterlimit="10"/>
<path d="M33.3532 28.4375L29.4323 30.7625C29.3939 34.9864 30.9315 37.2339 33.3532 38.2414C35.8133 37.2339 37.3125 34.9864 37.2741 30.7625L33.3532 28.4375ZM33.3532 35.3351C32.546 35.3351 31.7003 34.9089 31.7003 33.9788C31.7003 33.0488 32.546 32.3126 33.3532 30.7238C34.1604 32.3126 35.0061 32.8551 35.0061 33.9788C35.0061 35.1026 34.1604 35.3351 33.3532 35.3351Z" fill="white"/>
<path d="M4.34937 13.0773L25 1.1547L45.6506 13.0773V36.9226L25 48.8453L4.34937 36.9226V13.0773Z" stroke="#CE0F2D" stroke-width="2"/>
</svg>
