<svg width="50" height="50" viewBox="0 0 50 50" fill="none" xmlns="http://www.w3.org/2000/svg">
<path d="M10.3702 29.8553C11.5682 33.097 13.8891 35.8192 16.9248 37.5433C19.9604 39.2673 23.5165 39.8828 26.9676 39.2815C30.4187 38.6803 33.544 36.9007 35.7939 34.2558C38.0437 31.6109 39.2742 28.2699 39.2688 24.8204C39.2688 24.3787 39.2239 23.8929 39.179 23.4513M42.0784 25.8595L39.3347 23.4513L36.4592 25.8595M37.6633 18.1176C36.1896 15.1047 33.7438 12.6812 30.7238 11.2415C27.7039 9.80183 24.2876 9.4307 21.0309 10.1885C17.7741 10.9463 14.8687 12.7885 12.7873 15.4152C10.7059 18.042 9.57103 21.2987 9.56746 24.6554M12.377 22.2471L9.63335 24.6553L6.75781 22.2471" stroke="#CE0F2D" stroke-width="2" stroke-miterlimit="10"/>
<path fill-rule="evenodd" clip-rule="evenodd" d="M33.5254 25.5535C33.4656 25.9752 33.373 26.3917 33.2486 26.7991C32.3745 26.8804 31.4968 26.9173 30.619 26.9098C30.3745 27.451 30.0679 27.9619 29.7055 28.4323C30.1761 29.2627 30.5636 30.0377 30.8958 30.7851C30.2916 31.3787 29.6123 31.8906 28.8751 32.3075C28.2384 31.7816 27.6018 31.1726 26.9374 30.5083C26.385 30.7237 25.8089 30.8724 25.2212 30.9512C24.9444 31.8554 24.6676 32.6858 24.3908 33.4425C23.965 33.4424 23.5397 33.4146 23.1175 33.3594C22.6957 33.2996 22.2793 33.207 21.8719 33.0826C21.7866 32.2088 21.7589 31.3304 21.7888 30.4529C21.2444 30.2148 20.7327 29.9078 20.2664 29.5395C19.436 30.0101 18.6332 30.3976 17.8859 30.7297C17.3005 30.1185 16.7895 29.4403 16.3634 28.7091C16.8894 28.0724 17.4983 27.4358 18.1627 26.7714C17.9562 26.218 17.8168 25.6418 17.7475 25.0552L15.2285 24.2248C15.2286 23.799 15.2563 23.3737 15.3116 22.9515C15.3946 22.5086 15.4776 22.0934 15.5884 21.7059C16.4622 21.6211 17.3406 21.5933 18.218 21.6228C18.4562 21.0784 18.7631 20.5667 19.1315 20.1004C18.6886 19.27 18.2734 18.4672 17.9412 17.7198C18.5569 17.1278 19.2452 16.6163 19.9896 16.1974C20.5986 16.7233 21.2629 17.3323 21.9272 17.9966C22.4788 17.784 23.0557 17.6445 23.6434 17.5814C23.8744 16.7274 24.1517 15.8865 24.4739 15.0625L25.7472 15.1455L26.9651 15.4223C27.0482 16.2528 27.0758 17.1109 27.0758 18.052C27.617 18.2965 28.1279 18.6031 28.5983 18.9655L28.6638 18.9305C29.4695 18.5007 30.2234 18.0986 30.9511 17.7752C31.5517 18.3836 32.0641 19.0731 32.4736 19.8236C31.9476 20.4325 31.3387 21.0969 30.6743 21.7612C30.8964 22.3114 31.0453 22.8884 31.1172 23.4774C31.9635 23.7041 32.7954 23.9814 33.6085 24.3078C33.6084 24.7244 33.5806 25.1406 33.5254 25.5535ZM27.8786 24.2525C27.8786 26.1634 26.3294 27.7126 24.4185 27.7126C22.5075 27.7126 20.9584 26.1634 20.9584 24.2525C20.9584 22.3415 22.5075 20.7924 24.4185 20.7924C26.3294 20.7924 27.8786 22.3415 27.8786 24.2525Z" fill="#D1002B"/>
<path d="M4.34937 13.0773L25 1.1547L45.6506 13.0773V36.9226L25 48.8453L4.34937 36.9226V13.0773Z" stroke="#CE0F2D" stroke-width="2"/>
</svg>
