<svg width="102" height="101" viewBox="0 0 102 101" fill="none" xmlns="http://www.w3.org/2000/svg">
<path d="M50.7497 0.722562C50.9046 0.633137 51.0954 0.633137 51.2503 0.722562L93.9834 25.3945C94.1383 25.4839 94.2337 25.6492 94.2337 25.828V75.172C94.2337 75.3508 94.1383 75.5161 93.9834 75.6055L51.2503 100.277C51.0954 100.367 50.9046 100.367 50.7497 100.277L8.01663 75.6055C7.86174 75.5161 7.76632 75.3508 7.76632 75.172V25.8281C7.76632 25.6492 7.86174 25.4839 8.01662 25.3945L7.76632 24.961L8.01662 25.3945L50.7497 0.722562Z" fill="#D0132C" stroke="#F9F9F9" stroke-width="1.00121"/>
<path d="M50.7494 10.722C50.9045 10.6325 51.0955 10.6325 51.2506 10.722L85.3234 30.394C85.4785 30.4835 85.574 30.649 85.574 30.828V70.172C85.574 70.351 85.4785 70.5165 85.3234 70.606L51.2506 90.278C51.0955 90.3675 50.9045 90.3675 50.7494 90.278L16.6766 70.606C16.5215 70.5165 16.426 70.351 16.426 70.172V30.828C16.426 30.649 16.5215 30.4835 16.6766 30.394L16.4266 29.961L16.6766 30.394L50.7494 10.722Z" fill="url(#paint0_linear_3232_6319)" stroke="url(#paint1_linear_3232_6319)"/>
<g opacity="0.2">
<path d="M54.6212 45.6312L54.6212 45.6312L54.6266 45.6336C56.183 46.2981 57.5112 47.3971 58.4507 48.7965C59.3901 50.1958 59.9007 51.8356 59.9211 53.517C59.9415 55.1984 59.4708 56.85 58.5657 58.2714C57.6604 59.6928 56.3593 60.8233 54.8196 61.5249C53.2797 62.2265 51.5679 62.4688 49.8919 62.2221C48.2159 61.9753 46.6486 61.2503 45.3799 60.1357C44.1113 59.0212 43.1958 57.5651 42.7437 55.9445C42.2918 54.3244 42.3222 52.6087 42.8313 51.0054C43.2227 49.7845 43.881 48.6644 44.7592 47.7255L44.7593 47.7255L44.7682 47.7158C45.1192 47.3305 45.3341 46.8405 45.3789 46.3207C45.4237 45.8009 45.2958 45.2812 45.0155 44.8416L45.0111 44.8347L45.0066 44.8279L44.4541 43.9918C44.6197 43.8919 44.7818 43.7864 44.94 43.6752L45.4868 44.5027C45.4871 44.5031 45.4873 44.5035 45.4876 44.5038C45.7768 44.9434 46.206 45.2718 46.7048 45.4372C47.2033 45.6024 47.743 45.5955 48.237 45.4176C50.3146 44.6769 52.5985 44.7534 54.6212 45.6312Z" stroke="#121212" stroke-width="2"/>
<path d="M64.7164 47.0228L64.7189 47.0092L64.7211 46.9956C64.8589 46.1304 65.2101 45.3347 65.7249 44.6948C66.2373 44.0578 66.8886 43.6033 67.5989 43.3666C68.5942 43.0565 69.6594 43.1689 70.593 43.6926C71.5318 44.2192 72.2828 45.133 72.6686 46.2766C73.0002 47.305 73.0028 48.4316 72.6758 49.4622C72.3484 50.4941 71.7171 51.3483 70.9102 51.8977C70.1061 52.4452 69.1707 52.6624 68.2566 52.5304C67.341 52.3981 66.4742 51.9189 65.8104 51.1453L65.8104 51.1453L65.805 51.1391C65.4135 50.6904 64.9079 50.3568 64.3364 50.1891C63.7639 50.021 63.1588 50.0295 62.5911 50.2131L62.5774 50.2176L62.5637 50.2224L62.3955 50.2823C62.3417 50.0856 62.2834 49.8904 62.2204 49.697L62.5526 49.5867C62.553 49.5866 62.5534 49.5864 62.5538 49.5863C63.1133 49.4018 63.6038 49.0577 63.9802 48.6045C64.3564 48.1515 64.6073 47.6039 64.7164 47.0228Z" stroke="#121212" stroke-width="2"/>
<path d="M39.4955 31.9553C40.3955 31.7345 41.3408 31.7855 42.2119 32.1018C42.7906 32.312 43.3223 32.6342 43.7764 33.0499C44.2306 33.4657 44.5984 33.9669 44.8588 34.5249C45.1192 35.0828 45.267 35.6866 45.2939 36.3018C45.3209 36.9169 45.2263 37.5313 45.0156 38.1099C44.6986 38.9807 44.1305 39.7379 43.3831 40.2859C42.6358 40.8339 41.7428 41.148 40.817 41.1885C39.8911 41.229 38.9741 40.9941 38.1817 40.5135C37.3894 40.0329 36.7573 39.3282 36.3654 38.4884C35.9736 37.6486 35.8394 36.7115 35.98 35.7956C36.1207 34.8796 36.5297 34.0259 37.1554 33.3423C37.7812 32.6588 38.5955 32.1761 39.4955 31.9553Z" stroke="#121212" stroke-width="2"/>
<path d="M48.8599 65.9399L48.8752 65.9569L48.8913 65.9731C49.4928 66.58 49.904 67.3416 50.0788 68.1675C50.2536 68.9933 50.1853 69.8511 49.8813 70.6407L49.8786 70.6476L49.8761 70.6546C49.5944 71.4202 49.1096 72.0999 48.4698 72.6226C47.8299 73.1453 47.0583 73.4917 46.2344 73.6243C45.4104 73.7569 44.5656 73.6706 43.7875 73.3749C43.0096 73.0791 42.3279 72.5852 41.8116 71.9458C41.2954 71.3066 40.963 70.545 40.8469 69.7397C40.7308 68.9346 40.8349 68.1132 41.1492 67.3599C41.4635 66.6064 41.9772 65.9472 42.6392 65.4513C43.3012 64.9554 44.0872 64.6413 44.9162 64.543L44.9291 64.5415L44.9421 64.5396C45.5451 64.4521 46.1142 64.2046 46.588 63.822C46.8656 63.5978 47.1044 63.332 47.2965 63.0353L47.6693 63.212L47.7431 63.247L47.8217 63.2695L48.0387 63.3318C47.9959 63.6666 48.0052 64.0076 48.0677 64.3427C48.1788 64.9382 48.4535 65.4905 48.8599 65.9399Z" stroke="#121212" stroke-width="2"/>
</g>
<path d="M53.6212 43.6312L53.6212 43.6312L53.6266 43.6336C55.183 44.2981 56.5112 45.3971 57.4507 46.7965C58.3901 48.1958 58.9007 49.8356 58.9211 51.517C58.9415 53.1984 58.4708 54.85 57.5657 56.2714C56.6604 57.6928 55.3593 58.8233 53.8196 59.5249C52.2797 60.2265 50.5679 60.4688 48.8919 60.2221C47.2159 59.9753 45.6486 59.2503 44.3799 58.1357C43.1113 57.0212 42.1958 55.5651 41.7437 53.9445C41.2918 52.3244 41.3222 50.6087 41.8313 49.0054C42.2227 47.7845 42.881 46.6644 43.7592 45.7255L43.7593 45.7255L43.7682 45.7158C44.1192 45.3305 44.3341 44.8405 44.3789 44.3207C44.4237 43.8009 44.2958 43.2812 44.0155 42.8416L44.0111 42.8347L44.0066 42.8279L43.4541 41.9918C43.6197 41.8919 43.7818 41.7864 43.94 41.6752L44.4868 42.5027C44.4871 42.5031 44.4873 42.5035 44.4876 42.5038C44.7768 42.9434 45.206 43.2718 45.7048 43.4372C46.2033 43.6024 46.743 43.5955 47.237 43.4176C49.3146 42.6769 51.5985 42.7534 53.6212 43.6312Z" stroke="white" stroke-width="2"/>
<path d="M63.7164 45.0228L63.7189 45.0092L63.7211 44.9956C63.8589 44.1304 64.2101 43.3347 64.7249 42.6948C65.2373 42.0578 65.8886 41.6033 66.5989 41.3666C67.5942 41.0565 68.6594 41.1689 69.593 41.6926C70.5318 42.2192 71.2828 43.133 71.6686 44.2766C72.0002 45.305 72.0028 46.4316 71.6758 47.4622C71.3484 48.4941 70.7171 49.3483 69.9102 49.8977C69.1061 50.4452 68.1707 50.6624 67.2566 50.5304C66.341 50.3981 65.4742 49.9189 64.8104 49.1453L64.8104 49.1453L64.805 49.1391C64.4135 48.6904 63.9079 48.3568 63.3364 48.1891C62.7639 48.021 62.1588 48.0295 61.5911 48.2131L61.5774 48.2176L61.5637 48.2224L61.3955 48.2823C61.3417 48.0856 61.2834 47.8904 61.2204 47.697L61.5526 47.5867C61.553 47.5866 61.5534 47.5864 61.5538 47.5863C62.1133 47.4018 62.6038 47.0577 62.9802 46.6045C63.3564 46.1515 63.6073 45.6039 63.7164 45.0228Z" stroke="white" stroke-width="2"/>
<path d="M38.4955 29.9553C39.3955 29.7345 40.3408 29.7855 41.2119 30.1018C41.7906 30.312 42.3223 30.6342 42.7764 31.0499C43.2306 31.4657 43.5984 31.9669 43.8588 32.5249C44.1192 33.0828 44.267 33.6866 44.2939 34.3018C44.3209 34.9169 44.2263 35.5313 44.0156 36.1099C43.6986 36.9807 43.1305 37.7379 42.3831 38.2859C41.6358 38.8339 40.7428 39.148 39.817 39.1885C38.8911 39.229 37.9741 38.9941 37.1817 38.5135C36.3894 38.0329 35.7573 37.3282 35.3654 36.4884C34.9736 35.6486 34.8394 34.7115 34.98 33.7956C35.1207 32.8796 35.5297 32.0259 36.1554 31.3423C36.7812 30.6588 37.5955 30.1761 38.4955 29.9553Z" stroke="white" stroke-width="2"/>
<path d="M47.8599 63.9399L47.8752 63.9569L47.8913 63.9731C48.4928 64.58 48.904 65.3416 49.0788 66.1675C49.2536 66.9933 49.1853 67.8511 48.8813 68.6407L48.8786 68.6476L48.8761 68.6546C48.5944 69.4202 48.1096 70.0999 47.4698 70.6226C46.8299 71.1453 46.0583 71.4917 45.2344 71.6243C44.4104 71.7569 43.5656 71.6706 42.7875 71.3749C42.0096 71.0791 41.3279 70.5852 40.8116 69.9458C40.2954 69.3066 39.963 68.545 39.8469 67.7397C39.7308 66.9346 39.8349 66.1132 40.1492 65.3599C40.4635 64.6064 40.9772 63.9472 41.6392 63.4513C42.3012 62.9554 43.0872 62.6413 43.9162 62.543L43.9291 62.5415L43.9421 62.5396C44.5451 62.4521 45.1142 62.2046 45.588 61.822C45.8656 61.5978 46.1044 61.332 46.2965 61.0353L46.6693 61.212L46.7431 61.247L46.8217 61.2695L47.0387 61.3318C46.9959 61.6666 47.0052 62.0076 47.0677 62.3427C47.1788 62.9382 47.4535 63.4905 47.8599 63.9399Z" stroke="white" stroke-width="2"/>
<defs>
<linearGradient id="paint0_linear_3232_6319" x1="51" y1="10" x2="51" y2="91" gradientUnits="userSpaceOnUse">
<stop stop-color="#D0132C"/>
<stop offset="1" stop-color="#D0132C"/>
</linearGradient>
<linearGradient id="paint1_linear_3232_6319" x1="51" y1="10" x2="51" y2="91" gradientUnits="userSpaceOnUse">
<stop offset="0.158591" stop-color="#F6F5F5" stop-opacity="0"/>
<stop offset="1" stop-color="white"/>
</linearGradient>
</defs>
</svg>
