<svg width="32" height="32" viewBox="0 0 32 32" fill="none" xmlns="http://www.w3.org/2000/svg">
<path d="M15.7667 2.72256C15.9215 2.63314 16.1124 2.63314 16.2673 2.72256L27.4051 9.15299C27.56 9.24241 27.6554 9.40768 27.6554 9.58653V22.4474C27.6554 22.6262 27.56 22.7915 27.4051 22.8809L16.2673 29.3113C16.1124 29.4008 15.9215 29.4008 15.7667 29.3113L4.62882 22.8809L4.37852 23.3145L4.62882 22.8809C4.47394 22.7915 4.37852 22.6262 4.37852 22.4474V9.58653C4.37852 9.40768 4.47394 9.24241 4.62882 9.15299L15.7667 2.72256L15.5163 2.28902L15.7667 2.72256Z" fill="#D0132C" stroke="#F9F9F9" stroke-width="1.00121"/>
<path d="M17.0119 8.42969L24.0761 16.2134L17.0119 23.9971L17 18.7469L19.2671 16.2134L17 13.6886L17.0119 8.42969Z" fill="white"/>
<path opacity="0.5" d="M9.93577 8.42969L16.9999 16.2134L9.93577 23.9971L9.92383 18.7469L12.1909 16.2134L9.92383 13.6886L9.93577 8.42969Z" fill="white"/>
</svg>
