<svg width="50" height="50" viewBox="0 0 50 50" fill="none" xmlns="http://www.w3.org/2000/svg">
<path d="M4.34937 13.0773L25 1.1547L45.6506 13.0773V36.9226L25 48.8453L4.34937 36.9226V13.0773Z" stroke="#CE0F2D" stroke-width="2"/>
<path d="M24.9824 9.79691C20.9544 9.79691 17.0914 11.397 14.2432 14.2452C11.395 17.0934 9.79492 20.9564 9.79492 24.9843C9.79492 29.0123 11.395 32.8753 14.2432 35.7235C17.0914 38.5717 20.9544 40.1718 24.9824 40.1718C27.6497 40.1798 30.271 39.4766 32.5761 38.1344L31.65 36.6527C29.6145 37.7896 27.3134 38.3649 24.9824 38.3197C21.4456 38.3197 18.0537 36.9147 15.5529 34.4138C13.052 31.913 11.647 28.5211 11.647 24.9843C11.6467 21.4303 13.0457 18.0191 15.5414 15.4888C18.0371 12.9585 21.4287 11.5125 24.9824 11.4638C28.5682 11.4638 32.0072 12.8883 34.5428 15.4239C37.0784 17.9595 38.5029 21.3985 38.5029 24.9843C38.4579 27.3276 37.8207 29.6213 36.6508 31.652V29.4294H34.7986V34.8006H40.1698V32.9485H37.9472C39.3659 30.645 40.1435 28.0043 40.1997 25.2995C40.2558 22.5948 39.5885 19.9241 38.2666 17.5637C36.9448 15.2033 35.0164 13.2387 32.681 11.8733C30.3455 10.5078 27.6877 9.79101 24.9824 9.79691Z" fill="#D21E38"/>
<path d="M24.9823 15.1641C23.0408 15.1641 21.1429 15.7398 19.5287 16.8184C17.9144 17.897 16.6562 19.4301 15.9132 21.2238C15.1703 23.0175 14.9759 24.9912 15.3546 26.8954C15.7334 28.7996 16.6683 30.5487 18.0411 31.9215C19.414 33.2943 21.1631 34.2292 23.0672 34.608C24.9714 34.9867 26.9451 34.7924 28.7388 34.0494C30.5325 33.3064 32.0656 32.0482 33.1442 30.434C34.2228 28.8197 34.7986 26.9218 34.7986 24.9803C34.7986 22.3769 33.7643 19.8801 31.9234 18.0392C30.0825 16.1983 27.5857 15.1641 24.9823 15.1641Z" fill="#D21E38"/>
<path d="M25.9068 24.0587V18.6875H24.0547V25.9108H31.278V24.0587H25.9068Z" fill="white"/>
</svg>
