<svg width="55" height="46" viewBox="0 0 55 46" fill="none" xmlns="http://www.w3.org/2000/svg">
<g clip-path="url(#clip0_3232_6297)">
<path d="M50.1989 36.2974C51.3263 35.8465 52.2283 34.6063 53.3557 32.4642C50.4244 30.6604 47.2676 31.7878 45.2383 35.621" stroke="white" stroke-width="1.90769" stroke-miterlimit="10"/>
<path d="M41.1816 41.3717C43.211 43.4011 46.1423 44.8667 49.9755 40.5825C47.4952 37.9895 44.0002 38.1022 41.1816 41.3717Z" stroke="white" stroke-width="1.90769" stroke-miterlimit="10"/>
<path d="M51.3268 27.8421C52.567 26.9401 53.4689 25.1363 53.6944 22.0923C50.1994 21.8668 47.6063 24.3471 47.3809 28.8568" stroke="white" stroke-width="1.90769" stroke-miterlimit="10"/>
<path d="M50.5387 19.1573C51.3279 17.8044 51.6662 15.775 50.7642 12.8438C47.4947 13.9712 45.9163 17.3534 47.1565 21.5248" stroke="white" stroke-width="1.90769" stroke-miterlimit="10"/>
<path d="M5.32863 36.297C4.08848 35.7333 3.18655 34.4931 2.17188 32.4638C4.99041 30.6599 8.14717 31.6746 10.2893 35.6205" stroke="white" stroke-width="1.90769" stroke-miterlimit="10"/>
<path d="M14.3485 41.2564C12.3192 43.3985 9.27515 44.7514 5.55469 40.4672C8.035 37.9869 11.53 38.0997 14.3485 41.2564Z" stroke="white" stroke-width="1.90769" stroke-miterlimit="10"/>
<path d="M4.20155 27.8421C2.9614 26.8274 1.94673 25.1363 1.83398 22.0923C5.21623 21.8668 7.80928 24.3471 8.1475 28.744" stroke="white" stroke-width="1.90769" stroke-miterlimit="10"/>
<path d="M4.99106 19.0479C4.08913 17.695 3.86364 15.6657 4.76558 12.7344C8.03508 13.9745 9.61346 17.244 8.26056 21.5282" stroke="white" stroke-width="1.90769" stroke-miterlimit="10"/>
<path d="M19.8714 34.2653H14.2344V1.57031H41.2923V34.2653H35.6552" stroke="white" stroke-width="1.90769" stroke-miterlimit="10"/>
<path d="M33.403 30.8871C33.403 32.3821 32.8091 33.8159 31.752 34.8731C30.6948 35.9302 29.261 36.5241 27.766 36.5241C26.2709 36.5241 24.8371 35.9302 23.78 34.8731C22.7228 33.8159 22.1289 32.3821 22.1289 30.8871C22.1289 29.392 22.7228 27.9582 23.78 26.9011C24.8371 25.8439 26.2709 25.25 27.766 25.25C29.261 25.25 30.6948 25.8439 31.752 26.9011C32.8091 27.9582 33.403 29.392 33.403 30.8871Z" stroke="white" stroke-width="1.90769" stroke-miterlimit="10"/>
<path d="M30.0203 35.3984L32.2752 43.2903L27.7655 41.0355L23.2559 43.2903L25.5107 35.3984" stroke="white" stroke-width="1.90769" stroke-miterlimit="10"/>
<path d="M19.873 16.2266H35.6568" stroke="white" stroke-width="1.90769" stroke-miterlimit="10"/>
<path d="M23.2559 11.7188H32.2752" stroke="white" stroke-width="1.90769" stroke-miterlimit="10"/>
</g>
<defs>
<clipPath id="clip0_3232_6297">
<rect width="54.3414" height="44.9838" fill="white" transform="translate(0.59375 0.445312)"/>
</clipPath>
</defs>
</svg>
