<svg width="65" height="126" viewBox="0 0 65 126" fill="none" xmlns="http://www.w3.org/2000/svg">
<path d="M63.5834 125.127C40.3448 120.206 23.5944 107.442 14.7459 85.924C5.32739 62.9954 11.2796 38.7559 25.3846 23.2812C25.1109 23.659 24.8601 24.0478 24.5636 24.4255C18.1895 32.5794 14.0048 41.6553 12.2602 51.7977C6.57027 84.7687 28.6115 114.663 58.2241 121.806C59.7521 122.172 61.2458 122.639 62.7852 122.916C64.0737 123.15 64.3701 123.683 63.5834 125.127Z" fill="white"/>
<path d="M21.8262 117.472C29.3177 114.74 36.5653 113.039 43.6503 118.709C42.7211 120.757 41.1531 121.891 39.3877 122.716C37.2273 123.733 34.9857 123.849 32.6743 123.463C29.2364 122.883 23.8936 120.049 21.8262 117.472Z" fill="white"/>
<path d="M11.6426 105.253C19.0712 103.553 28.2075 106.402 30.5568 111.146C28.8166 113.041 26.6086 113.696 24.2049 113.431C19.0603 112.88 15.0796 110.1 11.8927 105.919C11.7731 105.77 11.7513 105.552 11.6426 105.253Z" fill="white"/>
<path d="M4.36328 90.2595C10.6148 89.6117 20.3357 94.6665 21.8226 99.339C16.2807 102.748 5.92899 97.3532 4.36328 90.2595Z" fill="white"/>
<path d="M0 74.2031C6.25727 76.7216 11.5485 79.7921 14.1832 86.2782C14.9626 88.1757 14.5344 88.7162 12.5475 88.7507C9.75915 88.8082 7.44286 87.5317 5.52177 85.5882C2.57975 82.6327 0.845281 78.9411 0 74.2031Z" fill="white"/>
<path d="M10.1425 74.1936C8.09753 74.2697 6.33005 73.6285 4.8914 72.2808C0.904293 68.5529 0.0102761 63.6186 0 58.1953C5.09692 60.9015 10.7282 67.9008 10.1425 74.1936Z" fill="white"/>
<path d="M1.82395 42.1953C7.81219 46.1538 11.4436 55.1249 9.78422 61.1095C8.02863 60.9807 6.58568 60.1843 5.3712 58.9897C2.95426 56.6006 1.66763 53.6258 1.48726 50.3349C1.35499 47.7583 1.69168 45.1466 1.82395 42.1953Z" fill="white"/>
<path d="M41.1315 98.9375C45.7139 102.245 47.9194 110.137 45.6682 114.942C39.6002 114.377 37.3604 106.61 41.1315 98.9375Z" fill="white"/>
<path d="M8.38784 29.1016C11.7859 34.3403 14.1103 39.6257 12.6473 45.8701C12.5461 46.3403 12.3958 46.7988 12.1989 47.2382C11.8095 48.0685 11.3376 48.2556 10.4409 47.6943C7.6327 45.9403 6.45281 43.2975 5.95725 40.2104C5.4145 36.8076 6.5118 31.5572 8.38784 29.1016Z" fill="white"/>
<path d="M33.4208 90.2031C37.1189 94.5536 37.3874 102.797 33.9822 107.662C28.4657 105.67 26.7692 96.603 33.4208 90.2031Z" fill="white"/>
<path d="M16.3639 17.4609C19.7957 24.1902 19.9763 31.6527 15.6285 34.9202C13.9899 33.8634 12.7514 32.634 12.1837 30.8762C10.571 25.8185 12.7385 21.6559 16.3639 17.4609Z" fill="white"/>
<path d="M24.67 97.4809C19.6708 93.6755 21.5936 84.1672 27.8547 81.4766C30.0539 85.3999 29.5491 94.2758 24.67 97.4809Z" fill="white"/>
<path d="M13.938 74.1978C10.5226 67.1571 18.2484 60.0935 23.2183 59.6484C23.9014 64.7607 18.6253 73.9126 13.938 74.1978Z" fill="white"/>
<path d="M24.4241 71.2891C25.728 77.1897 22.7547 83.8059 17.9656 85.8385C13.6274 82.3437 16.7835 74.1927 24.4241 71.2891Z" fill="white"/>
<path d="M22.0908 24.7327C20.661 23.2016 20.2872 21.1335 20.3807 18.9625C20.5769 14.3691 22.3432 10.7127 25.0533 7.66193C25.2028 7.50196 25.4084 7.41055 25.5953 7.27344C27.0531 12.8951 25.7915 22.2761 22.0908 24.7327Z" fill="white"/>
<path d="M37.7826 0C38.2323 4.9906 35.4101 14.6276 30.3391 16.0044C28.6862 13.836 28.9223 11.335 29.6869 9.01751C31.0362 4.9103 33.8022 1.93888 37.7826 0Z" fill="white"/>
<path d="M13.3726 61.0976C11.6257 54.9708 18.4079 49.1415 24.7333 49.4831C24.4935 54.4859 17.7 61.4172 13.3726 61.0976Z" fill="white"/>
<path d="M14.6268 47.9981C13.7301 42.8326 20.5247 38.402 27.6413 39.4309C27.2504 43.452 19.9499 48.2921 14.6268 47.9981Z" fill="white"/>
<path d="M39.2818 22.2043C35.3257 26.8117 29.0482 29.1093 24.7324 26.6264C25.2337 23.946 26.9012 22.4143 28.9828 21.4632C32.4376 19.8574 35.8488 19.9438 39.2818 22.2043Z" fill="white"/>
<path d="M32.0046 30.0197C28.8623 34.795 25.3467 38.1704 20.2236 37.804C19.0102 37.7124 18.6576 37.0714 19.0828 35.8023C19.508 34.5333 19.8917 33.4605 20.5347 32.5709C22.8992 29.3394 28.4994 28.0834 32.0046 30.0197Z" fill="white"/>
<path d="M50.9206 3.46061C48.8677 7.71387 43.3471 12.0251 39.0498 11.6079C37.9117 11.492 37.6245 11.0284 37.9542 9.86947C39.2945 5.18741 46.8041 1.45567 50.9206 3.46061Z" fill="white"/>
<path d="M46.5611 15.7279C44.2385 17.7673 41.5794 18.3836 38.8226 18.7645C36.7714 19.0559 34.7743 18.9886 32.8858 17.9353C31.8982 17.3751 31.7137 16.6915 32.506 15.896C33.2983 15.1004 33.9278 14.3945 34.8069 14.0359C38.942 12.3215 42.8167 12.9826 46.5611 15.7279Z" fill="white"/>
</svg>
