<svg width="102" height="101" viewBox="0 0 102 101" fill="none" xmlns="http://www.w3.org/2000/svg">
<path d="M50.7497 0.722562C50.9046 0.633137 51.0954 0.633137 51.2503 0.722562L93.9834 25.3945C94.1383 25.4839 94.2337 25.6492 94.2337 25.828V75.172C94.2337 75.3508 94.1383 75.5161 93.9834 75.6055L51.2503 100.277C51.0954 100.367 50.9046 100.367 50.7497 100.277L8.01663 75.6055C7.86174 75.5161 7.76632 75.3508 7.76632 75.172V25.8281C7.76632 25.6492 7.86174 25.4839 8.01662 25.3945L7.76632 24.961L8.01662 25.3945L50.7497 0.722562Z" fill="#D0132C" stroke="#F9F9F9" stroke-width="1.00121"/>
<path d="M50.7494 10.722C50.9045 10.6325 51.0955 10.6325 51.2506 10.722L85.3234 30.394C85.4785 30.4835 85.574 30.649 85.574 30.828V70.172C85.574 70.351 85.4785 70.5165 85.3234 70.606L51.2506 90.278C51.0955 90.3675 50.9045 90.3675 50.7494 90.278L16.6766 70.606C16.5215 70.5165 16.426 70.351 16.426 70.172V30.828C16.426 30.649 16.5215 30.4835 16.6766 30.394L16.4266 29.961L16.6766 30.394L50.7494 10.722Z" fill="url(#paint0_linear_3232_6345)" stroke="url(#paint1_linear_3232_6345)"/>
<path opacity="0.2" d="M64.7122 69.6625L57.0488 60.5931V44.695H58.0073C58.8024 44.695 59.4464 44.051 59.4464 43.2559C59.4464 42.4608 58.8024 41.8167 58.0073 41.8167H55.6097C54.8145 41.8167 54.1705 42.4608 54.1705 43.2559V61.1471C54.1704 61.5035 54.3028 61.8471 54.5418 62.1113L60.4048 69.1875H42.1783L48.0413 62.1113C48.2804 61.8471 48.4127 61.5034 48.4126 61.1471V43.2559C48.4126 42.4608 47.7686 41.8168 46.9735 41.8168H44.5758C43.7807 41.8168 43.1367 42.4608 43.1367 43.2559C43.1367 44.051 43.7807 44.6951 44.5758 44.6951H45.5343V60.5931L37.8709 69.6625C37.6845 69.8691 37.562 70.1253 37.5181 70.4001C37.4741 70.6749 37.5107 70.9565 37.6234 71.211C37.7364 71.4654 37.9209 71.6817 38.1544 71.8334C38.3878 71.9852 38.6603 72.0659 38.9388 72.0659H63.6443C63.9228 72.0659 64.1953 71.9852 64.4288 71.8334C64.6622 71.6817 64.8467 71.4654 64.9597 71.211C65.19 70.6915 65.0936 70.0842 64.7122 69.6625V69.6625ZM49.8524 40.3834C51.4383 40.3834 52.7235 39.0975 52.7235 37.5123C52.7235 35.9286 51.4383 34.6427 49.8524 34.6427C48.2658 34.6427 46.9814 35.9286 46.9814 37.5123C46.9814 39.0975 48.2658 40.3834 49.8524 40.3834ZM59.2284 36.1113C62.0332 36.1113 64.307 33.8476 64.307 31.0557C64.307 28.2637 62.0339 26 59.2284 26C56.4242 26 54.1497 28.2637 54.1497 31.0557C54.1497 33.8476 56.4242 36.1113 59.2284 36.1113ZM59.206 28.8696C60.4048 28.8696 61.3799 29.8403 61.3799 31.034C61.3799 32.2271 60.4048 33.1985 59.206 33.1985C58.0073 33.1985 57.0322 32.2271 57.0322 31.034C57.033 29.8403 58.0073 28.8696 59.206 28.8696Z" fill="#121212"/>
<path d="M63.7122 67.6625L56.0488 58.5931V42.695H57.0073C57.8024 42.695 58.4464 42.051 58.4464 41.2559C58.4464 40.4608 57.8024 39.8167 57.0073 39.8167H54.6097C53.8145 39.8167 53.1705 40.4608 53.1705 41.2559V59.1471C53.1704 59.5035 53.3028 59.8471 53.5418 60.1113L59.4048 67.1875H41.1783L47.0413 60.1113C47.2804 59.8471 47.4127 59.5034 47.4126 59.1471V41.2559C47.4126 40.4608 46.7686 39.8168 45.9735 39.8168H43.5758C42.7807 39.8168 42.1367 40.4608 42.1367 41.2559C42.1367 42.051 42.7807 42.6951 43.5758 42.6951H44.5343V58.5931L36.8709 67.6625C36.6845 67.8691 36.562 68.1253 36.5181 68.4001C36.4741 68.6749 36.5107 68.9565 36.6234 69.211C36.7364 69.4654 36.9209 69.6817 37.1544 69.8334C37.3878 69.9852 37.6603 70.0659 37.9388 70.0659H62.6443C62.9228 70.0659 63.1953 69.9852 63.4288 69.8334C63.6622 69.6817 63.8467 69.4654 63.9597 69.211C64.19 68.6915 64.0936 68.0842 63.7122 67.6625V67.6625ZM48.8524 38.3834C50.4383 38.3834 51.7235 37.0975 51.7235 35.5123C51.7235 33.9286 50.4383 32.6427 48.8524 32.6427C47.2658 32.6427 45.9814 33.9286 45.9814 35.5123C45.9814 37.0975 47.2658 38.3834 48.8524 38.3834ZM58.2284 34.1113C61.0332 34.1113 63.307 31.8476 63.307 29.0557C63.307 26.2637 61.0339 24 58.2284 24C55.4242 24 53.1497 26.2637 53.1497 29.0557C53.1497 31.8476 55.4242 34.1113 58.2284 34.1113ZM58.206 26.8696C59.4048 26.8696 60.3799 27.8403 60.3799 29.034C60.3799 30.2271 59.4048 31.1985 58.206 31.1985C57.0073 31.1985 56.0322 30.2271 56.0322 29.034C56.033 27.8403 57.0073 26.8696 58.206 26.8696Z" fill="white"/>
<defs>
<linearGradient id="paint0_linear_3232_6345" x1="51" y1="10" x2="51" y2="91" gradientUnits="userSpaceOnUse">
<stop stop-color="#D0132C"/>
<stop offset="1" stop-color="#D0132C"/>
</linearGradient>
<linearGradient id="paint1_linear_3232_6345" x1="51" y1="10" x2="51" y2="91" gradientUnits="userSpaceOnUse">
<stop offset="0.158591" stop-color="#F6F5F5" stop-opacity="0"/>
<stop offset="1" stop-color="white"/>
</linearGradient>
</defs>
</svg>
