<svg width="102" height="101" viewBox="0 0 102 101" fill="none" xmlns="http://www.w3.org/2000/svg">
<path d="M50.7497 0.722562C50.9046 0.633137 51.0954 0.633137 51.2503 0.722562L93.9834 25.3945C94.1383 25.4839 94.2337 25.6492 94.2337 25.828V75.172C94.2337 75.3508 94.1383 75.5161 93.9834 75.6055L51.2503 100.277C51.0954 100.367 50.9046 100.367 50.7497 100.277L8.01663 75.6055C7.86174 75.5161 7.76632 75.3508 7.76632 75.172V25.8281C7.76632 25.6492 7.86174 25.4839 8.01662 25.3945L7.76632 24.961L8.01662 25.3945L50.7497 0.722562Z" fill="#D0132C" stroke="#F9F9F9" stroke-width="1.00121"/>
<path d="M50.7494 10.722C50.9045 10.6325 51.0955 10.6325 51.2506 10.722L85.3234 30.394C85.4785 30.4835 85.574 30.649 85.574 30.828V70.172C85.574 70.351 85.4785 70.5165 85.3234 70.606L51.2506 90.278C51.0955 90.3675 50.9045 90.3675 50.7494 90.278L16.6766 70.606C16.5215 70.5165 16.426 70.351 16.426 70.172V30.828C16.426 30.649 16.5215 30.4835 16.6766 30.394L16.4266 29.961L16.6766 30.394L50.7494 10.722Z" fill="url(#paint0_linear_3232_6336)" stroke="url(#paint1_linear_3232_6336)"/>
<path opacity="0.2" d="M35.1184 40.913C34.286 39.7901 34.0463 38.604 34.4878 37.3171C34.6701 36.7744 34.9751 36.2811 35.379 35.8755C35.783 35.47 36.275 35.1631 36.8168 34.9788C37.3587 34.7944 37.9357 34.7376 38.5031 34.8127C39.0704 34.8878 39.6128 35.0929 40.0881 35.4118C40.3404 35.5633 40.5043 35.5633 40.744 35.4118C42.8681 33.99 45.251 32.9996 47.757 32.4972C48.0597 32.4341 48.2111 32.3206 48.2868 31.9673C48.4679 31.1313 48.9303 30.3829 49.5968 29.8471C50.2633 29.3112 51.0935 29.0205 51.9486 29.0235C52.8036 29.0264 53.6318 29.3229 54.2946 29.8633C54.9574 30.4037 55.4146 31.1553 55.5899 31.9925C55.6656 32.3206 55.8043 32.4215 56.0944 32.4846C58.6113 32.9967 61.0056 33.9907 63.1453 35.4118C63.3597 35.5633 63.5111 35.5759 63.7634 35.4245C65.3274 34.4025 67.2447 34.6169 68.5186 35.9039C69.7926 37.1909 69.9565 39.0835 68.9475 40.6228C68.7961 40.8373 68.7835 40.9761 68.9348 41.2032C70.3753 43.365 71.382 45.7861 71.899 48.3321C71.9494 48.6096 72.063 48.7106 72.3405 48.7737C73.1902 48.9399 73.9559 49.3963 74.5063 50.065C75.0567 50.7336 75.3576 51.5729 75.3576 52.439C75.3576 53.3052 75.0567 54.1444 74.5063 54.813C73.9559 55.4817 73.1902 55.9382 72.3405 56.1044C72.0503 56.1675 71.9494 56.281 71.899 56.546C71.382 59.0919 70.3753 61.5131 68.9348 63.6748C68.7835 63.9019 68.8087 64.0407 68.9475 64.2552C69.9691 65.8071 69.7673 67.7376 68.4808 69.012C67.8695 69.6245 67.0633 70.004 66.2018 70.0847C65.3403 70.1653 64.4777 69.9421 63.7634 69.4536C63.5111 69.2895 63.3597 69.3148 63.1453 69.4536C61.0079 70.8817 58.6131 71.8802 56.0944 72.3934C55.8043 72.4439 55.6656 72.5448 55.5899 72.8855C55.4147 73.7281 54.9539 74.4843 54.2855 75.0262C53.6171 75.5682 52.7821 75.8625 51.9217 75.8596C51.0614 75.8566 50.2284 75.5565 49.5638 75.0099C48.8991 74.4634 48.4436 73.7041 48.2742 72.8603C48.2111 72.5448 48.0724 72.4439 47.7949 72.3934C45.2629 71.8725 42.853 70.8748 40.6935 69.4536C40.6134 69.4142 40.5256 69.3927 40.4363 69.3905C40.3471 69.3884 40.2584 69.4055 40.1764 69.4409C38.4862 70.4756 36.6068 70.2863 35.3076 68.9236C34.0085 67.561 33.9328 65.7062 35.0428 64.0786L35.0806 63.9902C34.6391 63.2206 34.185 62.4509 33.7688 61.656C32.9444 60.0835 32.3498 58.4009 32.0029 56.6595C31.9399 56.3315 31.839 56.1675 31.4606 56.0917C30.622 55.9091 29.872 55.443 29.3367 54.772C28.8014 54.1009 28.5136 53.2659 28.5216 52.4075C28.535 51.5518 28.8359 50.7255 29.3759 50.0617C29.9159 49.398 30.6635 48.9354 31.4984 48.7484C31.6624 48.7106 31.902 48.5718 31.9273 48.4456C32.4882 45.7501 33.5724 43.1909 35.1184 40.913ZM52.6636 59.3344C52.7267 58.5269 52.7897 57.8203 52.8528 57.0381L46.3191 52.8112C45.9165 53.2155 45.4296 53.5257 44.8932 53.7199C44.3568 53.914 43.7842 53.9872 43.2162 53.9342L43.1658 53.9973L40.1764 62.9304C40.1628 62.9872 40.1626 63.0464 40.1758 63.1033C40.1889 63.1602 40.215 63.2133 40.2521 63.2584C40.6052 63.5991 40.9836 63.9271 41.3999 64.293L52.6636 59.3344ZM48.312 70.9676C49.2454 68.9867 49.9896 68.5073 52.4113 68.2801L54.5682 61.7948L53.3447 60.6845L50.6076 61.8831C47.7822 63.1323 44.9442 64.3688 42.1188 65.6305C41.9791 65.6962 41.8705 65.8139 41.8161 65.9585C41.7026 66.6651 41.6269 67.3717 41.526 68.1792C43.5811 69.5491 45.8877 70.4969 48.312 70.9676ZM59.6262 56.4072L67.6231 53.1897C67.6771 53.1587 67.7226 53.1149 67.7556 53.0621C67.7886 53.0092 67.8081 52.9491 67.8123 52.8869C67.8375 52.4706 67.8249 52.0416 67.8249 51.5621L65.4914 50.5022L58.3775 47.2596C58.1 47.1334 57.9612 47.1839 57.7468 47.3857C57.3306 47.7517 56.8513 48.0166 56.4224 48.3573C56.2963 48.4456 56.1575 48.6223 56.1701 48.7484C56.3467 50.641 56.5611 52.521 56.7756 54.4136C56.7914 54.49 56.8247 54.5616 56.8729 54.6229C56.921 54.6842 56.9827 54.7335 57.0531 54.7669C58.1378 54.9562 58.9703 55.5113 59.6262 56.4072ZM48.3246 33.9104C45.8886 34.3751 43.5718 35.3279 41.5134 36.7114C41.6522 37.6199 41.7783 38.44 41.9044 39.3232L51.6293 42.8687C52.1339 42.4271 52.5501 42.0107 53.0168 41.6827C53.2817 41.4934 53.3069 41.342 53.2312 41.0644C53.0168 40.2317 52.8024 39.3989 52.6005 38.5536C52.424 37.8975 52.26 37.2287 52.096 36.5853C50.2166 36.5222 49.0057 35.6263 48.3246 33.9104ZM58.7306 45.7581L61.9975 47.247C64.0535 48.1806 66.1095 49.1269 68.1654 50.048C68.2916 50.1111 68.5186 50.149 68.6195 50.0859C69.2123 49.6443 69.7926 49.1774 70.4232 48.6601C69.9419 46.2338 68.9767 43.9294 67.5852 41.8846C65.8698 42.6795 64.3814 42.364 63.0318 41.1275L58.6297 43.6636C58.6676 44.3954 58.6928 45.0515 58.7306 45.7581ZM59.8911 60.3817L63.448 63.3972C64.7472 62.4509 66.1221 62.3121 67.5474 62.9682C68.733 61.5551 70.4485 57.3661 70.398 56.1675L68.2663 54.5777L60.3452 57.7446C60.1812 58.6657 60.055 59.4732 59.8911 60.3817ZM36.0897 52.4579C35.9509 54.2496 35.0428 55.4104 33.4409 56.0413C33.6174 57.896 35.1563 61.5803 36.241 62.8799L38.7385 62.4635C39.7223 59.5111 40.7314 56.4703 41.69 53.6061C41.1476 52.95 40.7062 52.4075 40.2521 51.8775C40.2019 51.8202 40.1398 51.7746 40.07 51.7441C40.0002 51.7135 39.9246 51.6988 39.8484 51.7009L36.0897 52.4579ZM62.502 64.5706L58.7937 61.4415C58.0031 62.0587 57.0033 62.3438 56.0062 62.2364C55.2746 64.4571 54.543 66.6399 53.824 68.8227C54.634 69.3093 55.2427 70.0704 55.5395 70.9676C58.0268 70.4818 60.3906 69.4991 62.4894 68.0783C61.9092 66.9175 61.8966 65.7693 62.502 64.5706ZM54.7953 41.0897C55.9053 41.1023 56.826 41.4556 57.6081 42.2C57.6634 42.2412 57.7278 42.2684 57.7958 42.2794C57.8639 42.2904 57.9336 42.2848 57.9991 42.2631C59.3529 41.506 60.7025 40.7364 62.048 39.9541C62.0992 39.9163 62.1408 39.8668 62.1693 39.8098C62.1978 39.7528 62.2124 39.6898 62.2119 39.6261C61.8966 38.6419 62.0353 37.7082 62.4768 36.8124C60.9632 35.6011 57.1666 34.0365 55.5268 33.9482C55.2089 34.8558 54.5785 35.6206 53.7484 36.1058C53.6601 36.1563 53.6222 36.3708 53.6475 36.4969C54.0132 38.011 54.4043 39.5377 54.7953 41.0897ZM36.2915 41.8719C34.8697 43.9739 33.8911 46.3438 33.4156 48.8368C34.4373 49.2153 35.1941 49.8209 35.686 50.7672C35.7206 50.8119 35.7644 50.8486 35.8145 50.8747C35.8646 50.9009 35.9197 50.9158 35.9761 50.9186C37.2627 50.6789 38.5493 50.4139 39.7349 50.1742C39.9241 49.5433 40.025 48.9755 40.2773 48.4835C40.5296 47.9914 40.9458 47.5624 41.3368 47.0451C40.6052 45.4679 39.8358 43.8276 39.0538 42.1748C38.0826 42.4523 37.187 42.3136 36.2915 41.8719ZM51.932 47.1334L47.5426 49.1774C47.4543 49.2279 47.3282 49.3541 47.3282 49.4424C47.3156 50.149 47.3156 50.8555 47.3156 51.6504L53.6979 55.7889C54.1898 55.5113 54.6187 55.2716 55.0475 54.994C55.1484 54.9183 55.2746 54.7417 55.262 54.6281C55.0728 52.7355 54.871 50.8429 54.6439 48.9503C54.6281 48.874 54.5948 48.8024 54.5466 48.7411C54.4985 48.6798 54.4368 48.6305 54.3664 48.597C53.4024 48.4258 52.5355 47.9046 51.932 47.1334ZM46.6597 47.9157C48.1354 47.2343 49.5733 46.5656 50.9987 45.8843C51.0631 45.8527 51.1194 45.8066 51.1631 45.7497C51.2069 45.6929 51.2369 45.6266 51.2509 45.5562C51.2509 45.1525 51.2005 44.7487 51.1626 44.3071L50.6707 44.1178C47.8705 43.1085 45.0451 42.1243 42.2702 41.0392C41.463 40.7364 40.908 40.7111 40.4287 41.5187C41.0593 42.8687 41.7152 44.2188 42.308 45.5941C42.5729 46.1871 42.7874 46.5152 43.5694 46.4268C44.8181 46.3007 45.8398 46.9315 46.6597 47.9157Z" fill="#121212"/>
<path d="M34.1184 38.913C33.286 37.7901 33.0463 36.604 33.4878 35.3171C33.6701 34.7744 33.9751 34.2811 34.379 33.8755C34.783 33.47 35.275 33.1631 35.8168 32.9788C36.3587 32.7944 36.9357 32.7376 37.5031 32.8127C38.0704 32.8878 38.6128 33.0929 39.0881 33.4118C39.3404 33.5633 39.5043 33.5633 39.744 33.4118C41.8681 31.99 44.251 30.9996 46.757 30.4972C47.0597 30.4341 47.2111 30.3206 47.2868 29.9673C47.4679 29.1313 47.9303 28.3829 48.5968 27.8471C49.2633 27.3112 50.0935 27.0205 50.9486 27.0235C51.8036 27.0264 52.6318 27.3229 53.2946 27.8633C53.9574 28.4037 54.4146 29.1553 54.5899 29.9925C54.6656 30.3206 54.8043 30.4215 55.0944 30.4846C57.6113 30.9967 60.0056 31.9907 62.1453 33.4118C62.3597 33.5633 62.5111 33.5759 62.7634 33.4245C64.3274 32.4025 66.2447 32.6169 67.5186 33.9039C68.7926 35.1909 68.9565 37.0835 67.9475 38.6228C67.7961 38.8373 67.7835 38.9761 67.9348 39.2032C69.3753 41.365 70.382 43.7861 70.899 46.3321C70.9494 46.6096 71.063 46.7106 71.3405 46.7737C72.1902 46.9399 72.9559 47.3963 73.5063 48.065C74.0567 48.7336 74.3576 49.5729 74.3576 50.439C74.3576 51.3052 74.0567 52.1444 73.5063 52.813C72.9559 53.4817 72.1902 53.9382 71.3405 54.1044C71.0503 54.1675 70.9494 54.281 70.899 54.546C70.382 57.0919 69.3753 59.5131 67.9348 61.6748C67.7835 61.9019 67.8087 62.0407 67.9475 62.2552C68.9691 63.8071 68.7673 65.7376 67.4808 67.012C66.8695 67.6245 66.0633 68.004 65.2018 68.0847C64.3403 68.1653 63.4777 67.9421 62.7634 67.4536C62.5111 67.2895 62.3597 67.3148 62.1453 67.4536C60.0079 68.8817 57.6131 69.8802 55.0944 70.3934C54.8043 70.4439 54.6656 70.5448 54.5899 70.8855C54.4147 71.7281 53.9539 72.4843 53.2855 73.0262C52.6171 73.5682 51.7821 73.8625 50.9217 73.8596C50.0614 73.8566 49.2284 73.5565 48.5638 73.0099C47.8991 72.4634 47.4436 71.7041 47.2742 70.8603C47.2111 70.5448 47.0724 70.4439 46.7949 70.3934C44.2629 69.8725 41.853 68.8748 39.6935 67.4536C39.6134 67.4142 39.5256 67.3927 39.4363 67.3905C39.3471 67.3884 39.2584 67.4055 39.1764 67.4409C37.4862 68.4756 35.6068 68.2863 34.3076 66.9236C33.0085 65.561 32.9328 63.7062 34.0428 62.0786L34.0806 61.9902C33.6391 61.2206 33.185 60.4509 32.7688 59.656C31.9444 58.0835 31.3498 56.4009 31.0029 54.6595C30.9399 54.3315 30.839 54.1675 30.4606 54.0917C29.622 53.9091 28.872 53.443 28.3367 52.772C27.8014 52.1009 27.5136 51.2659 27.5216 50.4075C27.535 49.5518 27.8359 48.7255 28.3759 48.0617C28.9159 47.398 29.6635 46.9354 30.4984 46.7484C30.6624 46.7106 30.902 46.5718 30.9273 46.4456C31.4882 43.7501 32.5724 41.1909 34.1184 38.913ZM51.6636 57.3344C51.7267 56.5269 51.7897 55.8203 51.8528 55.0381L45.3191 50.8112C44.9165 51.2155 44.4296 51.5257 43.8932 51.7199C43.3568 51.914 42.7842 51.9872 42.2162 51.9342L42.1658 51.9973L39.1764 60.9304C39.1628 60.9872 39.1626 61.0464 39.1758 61.1033C39.1889 61.1602 39.215 61.2133 39.2521 61.2584C39.6052 61.5991 39.9836 61.9271 40.3999 62.293L51.6636 57.3344ZM47.312 68.9676C48.2454 66.9867 48.9896 66.5073 51.4113 66.2801L53.5682 59.7948L52.3447 58.6845L49.6076 59.8831C46.7822 61.1323 43.9442 62.3688 41.1188 63.6305C40.9791 63.6962 40.8705 63.8139 40.8161 63.9585C40.7026 64.6651 40.6269 65.3717 40.526 66.1792C42.5811 67.5491 44.8877 68.4969 47.312 68.9676ZM58.6262 54.4072L66.6231 51.1897C66.6771 51.1587 66.7226 51.1149 66.7556 51.0621C66.7886 51.0092 66.8081 50.9491 66.8123 50.8869C66.8375 50.4706 66.8249 50.0416 66.8249 49.5621L64.4914 48.5022L57.3775 45.2596C57.1 45.1334 56.9612 45.1839 56.7468 45.3857C56.3306 45.7517 55.8513 46.0166 55.4224 46.3573C55.2963 46.4456 55.1575 46.6223 55.1701 46.7484C55.3467 48.641 55.5611 50.521 55.7756 52.4136C55.7914 52.49 55.8247 52.5616 55.8729 52.6229C55.921 52.6842 55.9827 52.7335 56.0531 52.7669C57.1378 52.9562 57.9703 53.5113 58.6262 54.4072ZM47.3246 31.9104C44.8886 32.3751 42.5718 33.3279 40.5134 34.7114C40.6522 35.6199 40.7783 36.44 40.9044 37.3232L50.6293 40.8687C51.1339 40.4271 51.5501 40.0107 52.0168 39.6827C52.2817 39.4934 52.3069 39.342 52.2312 39.0644C52.0168 38.2317 51.8024 37.3989 51.6005 36.5536C51.424 35.8975 51.26 35.2287 51.096 34.5853C49.2166 34.5222 48.0057 33.6263 47.3246 31.9104ZM57.7306 43.7581L60.9975 45.247C63.0535 46.1806 65.1095 47.1269 67.1654 48.048C67.2916 48.1111 67.5186 48.149 67.6195 48.0859C68.2123 47.6443 68.7926 47.1774 69.4232 46.6601C68.9419 44.2338 67.9767 41.9294 66.5852 39.8846C64.8698 40.6795 63.3814 40.364 62.0318 39.1275L57.6297 41.6636C57.6676 42.3954 57.6928 43.0515 57.7306 43.7581ZM58.8911 58.3817L62.448 61.3972C63.7472 60.4509 65.1221 60.3121 66.5474 60.9682C67.733 59.5551 69.4485 55.3661 69.398 54.1675L67.2663 52.5777L59.3452 55.7446C59.1812 56.6657 59.055 57.4732 58.8911 58.3817ZM35.0897 50.4579C34.9509 52.2496 34.0428 53.4104 32.4409 54.0413C32.6174 55.896 34.1563 59.5803 35.241 60.8799L37.7385 60.4635C38.7223 57.5111 39.7314 54.4703 40.69 51.6061C40.1476 50.95 39.7062 50.4075 39.2521 49.8775C39.2019 49.8202 39.1398 49.7746 39.07 49.7441C39.0002 49.7135 38.9246 49.6988 38.8484 49.7009L35.0897 50.4579ZM61.502 62.5706L57.7937 59.4415C57.0031 60.0587 56.0033 60.3438 55.0062 60.2364C54.2746 62.4571 53.543 64.6399 52.824 66.8227C53.634 67.3093 54.2427 68.0704 54.5395 68.9676C57.0268 68.4818 59.3906 67.4991 61.4894 66.0783C60.9092 64.9175 60.8966 63.7693 61.502 62.5706ZM53.7953 39.0897C54.9053 39.1023 55.826 39.4556 56.6081 40.2C56.6634 40.2412 56.7278 40.2684 56.7958 40.2794C56.8639 40.2904 56.9336 40.2848 56.9991 40.2631C58.3529 39.506 59.7025 38.7364 61.048 37.9541C61.0992 37.9163 61.1408 37.8668 61.1693 37.8098C61.1978 37.7528 61.2124 37.6898 61.2119 37.6261C60.8966 36.6419 61.0353 35.7082 61.4768 34.8124C59.9632 33.6011 56.1666 32.0365 54.5268 31.9482C54.2089 32.8558 53.5785 33.6206 52.7484 34.1058C52.6601 34.1563 52.6222 34.3708 52.6475 34.4969C53.0132 36.011 53.4043 37.5377 53.7953 39.0897ZM35.2915 39.8719C33.8697 41.9739 32.8911 44.3438 32.4156 46.8368C33.4373 47.2153 34.1941 47.8209 34.686 48.7672C34.7206 48.8119 34.7644 48.8486 34.8145 48.8747C34.8646 48.9009 34.9197 48.9158 34.9761 48.9186C36.2627 48.6789 37.5493 48.4139 38.7349 48.1742C38.9241 47.5433 39.025 46.9755 39.2773 46.4835C39.5296 45.9914 39.9458 45.5624 40.3368 45.0451C39.6052 43.4679 38.8358 41.8276 38.0538 40.1748C37.0826 40.4523 36.187 40.3136 35.2915 39.8719ZM50.932 45.1334L46.5426 47.1774C46.4543 47.2279 46.3282 47.3541 46.3282 47.4424C46.3156 48.149 46.3156 48.8555 46.3156 49.6504L52.6979 53.7889C53.1898 53.5113 53.6187 53.2716 54.0475 52.994C54.1484 52.9183 54.2746 52.7417 54.262 52.6281C54.0728 50.7355 53.871 48.8429 53.6439 46.9503C53.6281 46.874 53.5948 46.8024 53.5466 46.7411C53.4985 46.6798 53.4368 46.6305 53.3664 46.597C52.4024 46.4258 51.5355 45.9046 50.932 45.1334ZM45.6597 45.9157C47.1354 45.2343 48.5733 44.5656 49.9987 43.8843C50.0631 43.8527 50.1194 43.8066 50.1631 43.7497C50.2069 43.6929 50.2369 43.6266 50.2509 43.5562C50.2509 43.1525 50.2005 42.7487 50.1626 42.3071L49.6707 42.1178C46.8705 41.1085 44.0451 40.1243 41.2702 39.0392C40.463 38.7364 39.908 38.7111 39.4287 39.5187C40.0593 40.8687 40.7152 42.2188 41.308 43.5941C41.5729 44.1871 41.7874 44.5152 42.5694 44.4268C43.8181 44.3007 44.8398 44.9315 45.6597 45.9157Z" fill="white"/>
<defs>
<linearGradient id="paint0_linear_3232_6336" x1="51" y1="10" x2="51" y2="91" gradientUnits="userSpaceOnUse">
<stop stop-color="#D0132C"/>
<stop offset="1" stop-color="#D0132C"/>
</linearGradient>
<linearGradient id="paint1_linear_3232_6336" x1="51" y1="10" x2="51" y2="91" gradientUnits="userSpaceOnUse">
<stop offset="0.158591" stop-color="#F6F5F5" stop-opacity="0"/>
<stop offset="1" stop-color="white"/>
</linearGradient>
</defs>
</svg>
