<svg width="32" height="32" viewBox="0 0 32 32" fill="none" xmlns="http://www.w3.org/2000/svg">
<path d="M15.7497 1.72256C15.9046 1.63314 16.0954 1.63314 16.2503 1.72256L16.4996 1.29084L16.2503 1.72256L28.2395 8.64451C28.3944 8.73394 28.4898 8.8992 28.4898 9.07805V22.9219C28.4898 23.1008 28.3944 23.2661 28.2395 23.3555L16.2503 30.2774C16.0954 30.3669 15.9046 30.3669 15.7497 30.2774L3.76053 23.3555L3.51022 23.789L3.76053 23.3555C3.60564 23.2661 3.51022 23.1008 3.51022 22.922V9.07805C3.51022 8.8992 3.60564 8.73394 3.76053 8.64451L15.7497 1.72256L15.4994 1.28903L15.7497 1.72256Z" fill="#D0132C" stroke="#F9F9F9" stroke-width="1.00121"/>
<path d="M14.0619 13.0749L14.2664 13.6483C14.9589 13.4013 15.7203 13.4267 16.3944 13.7193L16.3944 13.7193L16.3978 13.7207C16.9168 13.9423 17.3595 14.3088 17.6726 14.7751C17.9856 15.2413 18.1556 15.7875 18.1624 16.3475C18.1692 16.9074 18.0125 17.4576 17.7109 17.9312C17.4093 18.4048 16.9756 18.7817 16.4621 19.0157C15.9486 19.2497 15.3775 19.3305 14.8185 19.2482C14.2594 19.1659 13.7367 18.924 13.3138 18.5525C12.8909 18.181 12.586 17.6958 12.4354 17.156C12.2849 16.6165 12.295 16.0452 12.4644 15.5113C12.5948 15.1048 12.8141 14.7317 13.1067 14.4188L13.1068 14.4188L13.1122 14.4129C13.2756 14.2336 13.3757 14.0053 13.3966 13.7632C13.4015 13.7061 13.4019 13.6491 13.3981 13.5925C13.4475 13.6178 13.4989 13.6394 13.5521 13.657L13.7281 13.126L13.5521 13.657C13.7853 13.7343 14.0377 13.7309 14.2688 13.6475L14.0619 13.0749ZM14.0619 13.0749C13.9593 13.112 13.8472 13.1135 13.7437 13.0791C13.6401 13.0448 13.5513 12.9767 13.4916 12.8859L11.8845 15.3262C11.6789 15.9733 11.6666 16.6657 11.849 17.3196C12.0314 17.9734 12.4007 18.5606 12.912 19.0098C13.4234 19.4591 14.0548 19.7511 14.7298 19.8505C15.4048 19.9498 16.0942 19.8523 16.7145 19.5696C17.3348 19.287 17.8593 18.8314 18.2244 18.2582C18.5894 17.6849 18.7794 17.0186 18.7712 16.3401C18.7629 15.6616 18.5569 15.0001 18.178 14.4357C17.7992 13.8714 17.2638 13.4285 16.6368 13.1608C15.8209 12.8067 14.8998 12.776 14.0619 13.0749Z" stroke="white" stroke-width="1.21755"/>
<path d="M20.076 14.9038C20.0278 14.8897 19.979 14.8783 19.93 14.8698C19.9791 14.8251 20.0251 14.777 20.0676 14.7258C20.2317 14.5283 20.3398 14.2912 20.3867 14.0414L20.3882 14.0332L20.3895 14.0249C20.4329 13.7527 20.543 13.5054 20.7011 13.3089C20.8577 13.1142 21.0534 12.9789 21.2621 12.9088C21.5555 12.8181 21.8696 12.8508 22.1482 13.007C22.43 13.1651 22.6634 13.4442 22.785 13.8034C22.8886 14.126 22.8893 14.4801 22.7867 14.8033C22.6839 15.1273 22.4877 15.3891 22.2447 15.5546C22.0033 15.7189 21.727 15.7817 21.4594 15.7431C21.191 15.7043 20.9304 15.5629 20.727 15.3258L20.727 15.3258L20.7237 15.3221C20.5527 15.1261 20.3301 14.9784 20.076 14.9038Z" stroke="white" stroke-width="1.21755"/>
<path d="M11.0826 8.7911C11.3607 8.72289 11.6527 8.73864 11.9217 8.83636C12.1005 8.90129 12.2648 9.00082 12.4051 9.12926C12.5454 9.25769 12.659 9.41251 12.7394 9.58488L13.2911 9.32744L12.7394 9.58488C12.8199 9.75725 12.8655 9.94377 12.8738 10.1338C12.8822 10.3238 12.8529 10.5136 12.7879 10.6924C12.6899 10.9614 12.5144 11.1953 12.2836 11.3646C12.0527 11.5338 11.7768 11.6309 11.4908 11.6434C11.2048 11.6559 10.9215 11.5833 10.6768 11.4349C10.432 11.2864 10.2368 11.0687 10.1157 10.8093C9.99463 10.5499 9.9532 10.2604 9.99663 9.97742C10.0401 9.69446 10.1664 9.43073 10.3597 9.21957C10.553 9.00841 10.8046 8.8593 11.0826 8.7911Z" stroke="white" stroke-width="1.21755"/>
<path d="M14.2277 21.0083L14.237 21.0186L14.2468 21.0285C14.4312 21.2146 14.5567 21.4475 14.6101 21.6994C14.6634 21.9512 14.6425 22.2128 14.5498 22.4538L14.5497 22.4538L14.5466 22.4623C14.4601 22.6974 14.311 22.9067 14.1136 23.068C13.9161 23.2293 13.6775 23.3366 13.4222 23.3776C13.1669 23.4187 12.9052 23.392 12.6644 23.3004C12.4236 23.2089 12.2132 23.0563 12.0542 22.8594C11.8953 22.6625 11.7933 22.4285 11.7577 22.1815C11.7221 21.9346 11.754 21.6826 11.8505 21.4513C11.947 21.2198 12.1051 21.0167 12.3094 20.8637C12.5139 20.7105 12.757 20.6133 13.0138 20.5828L13.0217 20.5819L13.0296 20.5807C13.2913 20.5427 13.5385 20.4353 13.7446 20.2689C13.7857 20.2357 13.8249 20.2004 13.862 20.1632C13.8659 20.2124 13.8724 20.2615 13.8816 20.3103C13.9302 20.5708 14.0503 20.8121 14.2277 21.0083Z" stroke="white" stroke-width="1.21755"/>
</svg>
