<svg width="30" height="30" viewBox="0 0 30 30" fill="none" xmlns="http://www.w3.org/2000/svg">
<g id="Group 336001">
<path id="Polygon" d="M14.7497 0.722562C14.9046 0.633137 15.0954 0.633137 15.2503 0.722562L15.4996 0.290841L15.2503 0.722562L27.2395 7.64451C27.3944 7.73394 27.4898 7.8992 27.4898 8.07805V21.9219C27.4898 22.1008 27.3944 22.2661 27.2395 22.3555L15.2503 29.2774C15.0954 29.3669 14.9046 29.3669 14.7497 29.2774L2.76053 22.3555L2.51022 22.789L2.76053 22.3555C2.60564 22.2661 2.51022 22.1008 2.51022 21.922V8.07805C2.51022 7.8992 2.60564 7.73394 2.76053 7.64451L14.7497 0.722562L14.4994 0.289025L14.7497 0.722562Z" fill="#B68E5C" stroke="#F9F9F9" stroke-width="1.00121"/>
<path id="Vector" d="M9.98488 11.555C9.73761 11.2215 9.66642 10.8692 9.79755 10.4869C9.8517 10.3257 9.94229 10.1792 10.0623 10.0587C10.1823 9.93825 10.3284 9.8471 10.4894 9.79235C10.6503 9.7376 10.8217 9.72072 10.9902 9.74303C11.1587 9.76534 11.3199 9.82624 11.461 9.92098C11.5359 9.96596 11.5847 9.96596 11.6558 9.92098C12.2868 9.49864 12.9945 9.20449 13.7389 9.05526C13.8288 9.03652 13.8738 9.00279 13.8963 8.89785C13.9501 8.64955 14.0874 8.42724 14.2854 8.26808C14.4834 8.10892 14.7299 8.02257 14.9839 8.02344C15.2379 8.02432 15.4839 8.11238 15.6808 8.2729C15.8776 8.43342 16.0134 8.65668 16.0655 8.90535C16.088 9.00279 16.1292 9.03277 16.2154 9.05151C16.963 9.20363 17.6741 9.49887 18.3097 9.92098C18.3734 9.96596 18.4183 9.9697 18.4933 9.92473C18.9578 9.62117 19.5273 9.68488 19.9057 10.0671C20.2841 10.4494 20.3328 11.0116 20.0331 11.4688C19.9881 11.5325 19.9844 11.5737 20.0294 11.6412C20.4572 12.2833 20.7562 13.0025 20.9098 13.7587C20.9248 13.8411 20.9585 13.8711 21.0409 13.8898C21.2933 13.9392 21.5208 14.0748 21.6842 14.2734C21.8477 14.472 21.9371 14.7213 21.9371 14.9786C21.9371 15.2358 21.8477 15.4851 21.6842 15.6837C21.5208 15.8823 21.2933 16.0179 21.0409 16.0673C20.9548 16.086 20.9248 16.1197 20.9098 16.1984C20.7562 16.9547 20.4572 17.6738 20.0294 18.3159C19.9844 18.3834 19.9919 18.4246 20.0331 18.4883C20.3366 18.9493 20.2766 19.5227 19.8945 19.9012C19.7129 20.0832 19.4734 20.1959 19.2176 20.2198C18.9617 20.2438 18.7054 20.1775 18.4933 20.0324C18.4183 19.9837 18.3734 19.9912 18.3097 20.0324C17.6748 20.4566 16.9635 20.7532 16.2154 20.9056C16.1292 20.9206 16.088 20.9506 16.0655 21.0518C16.0135 21.3021 15.8766 21.5267 15.6781 21.6876C15.4795 21.8486 15.2315 21.936 14.976 21.9352C14.7204 21.9343 14.473 21.8451 14.2756 21.6828C14.0782 21.5205 13.9428 21.2949 13.8925 21.0443C13.8738 20.9506 13.8326 20.9206 13.7502 20.9056C12.9981 20.7509 12.2823 20.4545 11.6409 20.0324C11.617 20.0207 11.591 20.0143 11.5645 20.0137C11.5379 20.013 11.5116 20.0181 11.4872 20.0286C10.9852 20.336 10.427 20.2797 10.0411 19.875C9.65519 19.4702 9.63271 18.9193 9.9624 18.4358L9.97364 18.4096C9.84251 18.181 9.70764 17.9524 9.584 17.7163C9.33914 17.2492 9.16251 16.7494 9.05949 16.2322C9.04075 16.1347 9.01078 16.086 8.89838 16.0635C8.64931 16.0093 8.42653 15.8708 8.26753 15.6715C8.10854 15.4722 8.02305 15.2242 8.02544 14.9692C8.0294 14.715 8.11878 14.4696 8.27917 14.2724C8.43957 14.0753 8.66165 13.9379 8.90962 13.8823C8.95833 13.8711 9.02951 13.8299 9.03701 13.7924C9.20362 12.9918 9.52566 12.2316 9.98488 11.555ZM15.1963 17.0267C15.2151 16.7868 15.2338 16.577 15.2525 16.3446L13.3118 15.0891C13.1922 15.2092 13.0476 15.3013 12.8883 15.359C12.729 15.4167 12.5589 15.4384 12.3902 15.4227L12.3752 15.4414L11.4872 18.0948C11.4832 18.1117 11.4832 18.1293 11.4871 18.1462C11.491 18.1631 11.4987 18.1788 11.5097 18.1922C11.6146 18.2934 11.727 18.3909 11.8507 18.4996L15.1963 17.0267ZM13.9038 20.4821C14.181 19.8937 14.4021 19.7513 15.1214 19.6838L15.762 17.7575L15.3986 17.4277L14.5856 17.7837C13.7464 18.1548 12.9034 18.522 12.0642 18.8968C12.0227 18.9163 11.9904 18.9513 11.9743 18.9943C11.9406 19.2041 11.9181 19.414 11.8881 19.6539C12.4985 20.0608 13.1837 20.3423 13.9038 20.4821ZM17.2644 16.1572L19.6397 15.2016C19.6558 15.1923 19.6693 15.1793 19.6791 15.1636C19.6889 15.1479 19.6947 15.1301 19.6959 15.1116C19.7034 14.9879 19.6997 14.8605 19.6997 14.7181L19.0066 14.4033L16.8935 13.4401C16.8111 13.4026 16.7699 13.4176 16.7062 13.4776C16.5825 13.5863 16.4402 13.665 16.3128 13.7662C16.2753 13.7924 16.2341 13.8449 16.2379 13.8823C16.2903 14.4445 16.354 15.0029 16.4177 15.5651C16.4224 15.5878 16.4323 15.609 16.4466 15.6272C16.4609 15.6454 16.4792 15.6601 16.5001 15.67C16.8223 15.7262 17.0696 15.8911 17.2644 16.1572ZM13.9075 9.475C13.184 9.61305 12.4958 9.89605 11.8844 10.307C11.9256 10.5768 11.9631 10.8204 12.0005 11.0828L14.8891 12.1359C15.039 12.0047 15.1626 11.8811 15.3012 11.7836C15.3799 11.7274 15.3874 11.6824 15.3649 11.6C15.3012 11.3526 15.2375 11.1053 15.1776 10.8542C15.1251 10.6593 15.0764 10.4607 15.0277 10.2695C14.4695 10.2508 14.1098 9.9847 13.9075 9.475ZM16.9984 12.9941L17.9688 13.4364C18.5794 13.7137 19.1901 13.9948 19.8008 14.2684C19.8383 14.2871 19.9057 14.2983 19.9357 14.2796C20.1118 14.1484 20.2841 14.0098 20.4715 13.8561C20.3285 13.1354 20.0418 12.451 19.6285 11.8436C19.1189 12.0797 18.6769 11.986 18.276 11.6187L16.9684 12.372C16.9797 12.5894 16.9872 12.7843 16.9984 12.9941ZM17.3431 17.3378L18.3996 18.2335C18.7855 17.9524 19.1939 17.9112 19.6172 18.106C19.9694 17.6863 20.4789 16.4421 20.464 16.086L19.8308 15.6138L17.478 16.5545C17.4293 16.8281 17.3918 17.0679 17.3431 17.3378ZM10.2734 14.9842C10.2322 15.5164 9.9624 15.8612 9.48659 16.0485C9.53904 16.5995 9.99612 17.6938 10.3183 18.0798L11.0601 17.9561C11.3524 17.0792 11.6521 16.176 11.9368 15.3252C11.7757 15.1303 11.6446 14.9692 11.5097 14.8118C11.4948 14.7947 11.4764 14.7812 11.4556 14.7721C11.4349 14.7631 11.4124 14.7587 11.3898 14.7593L10.2734 14.9842ZM18.1186 18.582L17.0171 17.6526C16.7823 17.8359 16.4853 17.9206 16.1892 17.8887C15.9719 18.5483 15.7546 19.1966 15.541 19.845C15.7816 19.9895 15.9624 20.2156 16.0505 20.4821C16.7893 20.3378 17.4915 20.0459 18.1149 19.6239C17.9425 19.2791 17.9388 18.938 18.1186 18.582ZM15.8295 11.6075C16.1592 11.6112 16.4327 11.7162 16.665 11.9373C16.6814 11.9495 16.7005 11.9576 16.7207 11.9609C16.741 11.9641 16.7617 11.9625 16.7811 11.956C17.1832 11.7311 17.5841 11.5025 17.9837 11.2702C17.999 11.2589 18.0113 11.2442 18.0198 11.2273C18.0283 11.2104 18.0326 11.1917 18.0325 11.1727C17.9388 10.8804 17.98 10.6031 18.1111 10.337C17.6615 9.9772 16.5338 9.51248 16.0468 9.48625C15.9523 9.75583 15.7651 9.983 15.5185 10.1271C15.4923 10.1421 15.4811 10.2058 15.4886 10.2433C15.5972 10.693 15.7133 11.1465 15.8295 11.6075ZM10.3333 11.8398C9.91099 12.4642 9.62034 13.1681 9.4791 13.9086C9.78257 14.021 10.0074 14.2009 10.1535 14.482C10.1637 14.4953 10.1768 14.5062 10.1916 14.5139C10.2065 14.5217 10.2229 14.5261 10.2396 14.527C10.6218 14.4557 11.0039 14.377 11.3561 14.3058C11.4123 14.1185 11.4423 13.9498 11.5172 13.8036C11.5921 13.6575 11.7158 13.5301 11.8319 13.3764C11.6146 12.9079 11.3861 12.4207 11.1538 11.9298C10.8653 12.0122 10.5993 11.971 10.3333 11.8398ZM14.979 13.4026L13.6752 14.0098C13.649 14.0248 13.6115 14.0622 13.6115 14.0885C13.6078 14.2983 13.6078 14.5082 13.6078 14.7443L15.5035 15.9736C15.6497 15.8911 15.777 15.8199 15.9044 15.7375C15.9344 15.715 15.9719 15.6625 15.9681 15.6288C15.9119 15.0666 15.852 14.5045 15.7845 13.9423C15.7798 13.9196 15.7699 13.8984 15.7556 13.8802C15.7413 13.862 15.723 13.8473 15.7021 13.8374C15.4158 13.7865 15.1583 13.6317 14.979 13.4026ZM13.413 13.635C13.8513 13.4326 14.2784 13.234 14.7018 13.0316C14.7209 13.0222 14.7376 13.0085 14.7506 12.9916C14.7636 12.9747 14.7725 12.9551 14.7767 12.9342C14.7767 12.8142 14.7617 12.6943 14.7505 12.5631L14.6044 12.5069C13.7726 12.2071 12.9334 11.9148 12.1092 11.5925C11.8694 11.5025 11.7045 11.495 11.5622 11.7349C11.7495 12.1359 11.9443 12.5369 12.1204 12.9454C12.1991 13.1216 12.2628 13.219 12.4951 13.1928C12.866 13.1553 13.1694 13.3427 13.413 13.635Z" fill="white"/>
</g>
</svg>
