<svg width="51" height="50" viewBox="0 0 51 50" fill="none" xmlns="http://www.w3.org/2000/svg">
<path d="M4.41635 13.0831L25.5 1.14908L46.5836 13.0831V36.917L25.5 48.8509L4.41635 36.917V13.0831Z" stroke="#CE0F2D" stroke-width="2"/>
<path d="M44.1195 14.4611L25.5 3.92188V46.0787L44.1195 35.5395V14.4611Z" fill="#CE0F2D"/>
<g clip-path="url(#clip0_3232_6705)">
<path d="M22.9363 11.9225C22.7675 11.757 22.5386 11.6641 22.2999 11.6641C22.0612 11.6641 21.8322 11.757 21.6635 11.9225C21.4947 12.088 21.3999 12.3124 21.3999 12.5464V15.1229L19.3359 13.0994C19.1652 12.9435 18.9396 12.8586 18.7064 12.8627C18.4733 12.8667 18.2508 12.9593 18.0859 13.121C17.921 13.2826 17.8266 13.5007 17.8224 13.7293C17.8183 13.9579 17.9049 14.1792 18.0639 14.3464L21.3999 17.617V22.7817L16.8363 20.2017L15.6159 15.7335C15.5541 15.5073 15.4032 15.3144 15.1964 15.1972C14.9896 15.08 14.7438 15.0482 14.5131 15.1088C14.2823 15.1693 14.0856 15.3172 13.9661 15.52C13.8466 15.7227 13.8141 15.9637 13.8759 16.1899L14.6319 18.9535L12.3579 17.6641C12.151 17.5471 11.9052 17.5154 11.6745 17.5761C11.5603 17.6061 11.4532 17.6579 11.3594 17.7285C11.2656 17.7991 11.1869 17.8872 11.1279 17.9876C11.0688 18.088 11.0304 18.1989 11.015 18.3138C10.9996 18.4288 11.0075 18.5456 11.0381 18.6575C11.0688 18.7695 11.1216 18.8745 11.1936 18.9664C11.2656 19.0584 11.3554 19.1355 11.4579 19.1935L13.7331 20.4805L10.9143 21.2205C10.8 21.2505 10.6929 21.3022 10.599 21.3728C10.5052 21.4434 10.4264 21.5313 10.3673 21.6317C10.3081 21.7321 10.2697 21.843 10.2542 21.9579C10.2387 22.0729 10.2465 22.1897 10.2771 22.3017C10.3076 22.4137 10.3604 22.5187 10.4324 22.6107C10.5043 22.7028 10.5941 22.78 10.6965 22.838C10.7989 22.896 10.9119 22.9337 11.0292 22.9488C11.1465 22.964 11.2656 22.9564 11.3799 22.9264L15.9375 21.7288L20.4999 24.3111L15.9375 26.8935L11.3799 25.697C11.2645 25.663 11.1434 25.652 11.0237 25.6648C10.9039 25.6775 10.788 25.7137 10.6828 25.7711C10.5776 25.8286 10.4852 25.9061 10.4111 25.9992C10.337 26.0923 10.2828 26.199 10.2515 26.3131C10.2203 26.4271 10.2127 26.5461 10.2292 26.6631C10.2457 26.78 10.286 26.8925 10.3477 26.9939C10.4094 27.0953 10.4912 27.1836 10.5883 27.2534C10.6855 27.3233 10.7959 27.3733 10.9131 27.4005L13.7331 28.1417L11.4579 29.4288C11.251 29.5458 11.1 29.7386 11.0381 29.9647C10.9762 30.1909 11.0085 30.4318 11.1279 30.6346C11.2472 30.8375 11.4438 30.9855 11.6745 31.0462C11.9052 31.1068 12.151 31.0752 12.3579 30.9582L14.6331 29.6688L13.8771 32.4335C13.8465 32.5454 13.8387 32.6621 13.8541 32.777C13.8696 32.8919 13.908 33.0027 13.9671 33.103C14.0262 33.2034 14.1049 33.2913 14.1987 33.3618C14.2925 33.4324 14.3995 33.4841 14.5137 33.5141C14.6278 33.544 14.7469 33.5517 14.8641 33.5365C14.9813 33.5214 15.0943 33.4838 15.1966 33.4258C15.2989 33.3678 15.3887 33.2907 15.4606 33.1988C15.5325 33.1068 15.5853 33.0019 15.6159 32.8899L16.8375 28.4217L21.3999 25.8394V31.0052L18.0639 34.2758C17.9049 34.4431 17.8183 34.6643 17.8224 34.8929C17.8266 35.1215 17.921 35.3396 18.0859 35.5013C18.2508 35.6629 18.4733 35.7555 18.7064 35.7596C18.9396 35.7636 19.1652 35.6787 19.3359 35.5229L21.3999 33.4994V36.0758C21.3999 36.3098 21.4947 36.5343 21.6635 36.6997C21.8322 36.8652 22.0612 36.9582 22.2999 36.9582C22.5386 36.9582 22.7675 36.8652 22.9363 36.6997C23.105 36.5343 23.1999 36.3098 23.1999 36.0758V33.5005V31.0052V25.8405V22.7829V17.617V15.1229V12.5464C23.1999 12.3124 23.105 12.088 22.9363 11.9225Z" fill="#CE0F2D"/>
</g>
<g clip-path="url(#clip1_3232_6705)">
<path d="M26.4863 10.9297C26.7617 10.9297 27.0259 11.0381 27.2206 11.2312C27.4154 11.4242 27.5248 11.6861 27.5248 11.9591V14.7042C27.5248 14.9772 27.4154 15.239 27.2206 15.4321C27.0259 15.6252 26.7617 15.7336 26.4863 15.7336C26.2109 15.7336 25.9468 15.6252 25.752 15.4321C25.5573 15.239 25.4479 14.9772 25.4479 14.7042V11.9591C25.4479 11.6861 25.5573 11.4242 25.752 11.2312C25.9468 11.0381 26.2109 10.9297 26.4863 10.9297ZM26.4863 32.896C26.7617 32.896 27.0259 33.0044 27.2206 33.1975C27.4154 33.3905 27.5248 33.6524 27.5248 33.9254V36.6705C27.5248 36.9435 27.4154 37.2053 27.2206 37.3984C27.0259 37.5914 26.7617 37.6999 26.4863 37.6999C26.2109 37.6999 25.9468 37.5914 25.752 37.3984C25.5573 37.2053 25.4479 36.9435 25.4479 36.6705V33.9254C25.4479 33.6524 25.5573 33.3905 25.752 33.1975C25.9468 33.0044 26.2109 32.896 26.4863 32.896ZM12.9863 24.312C12.9863 24.039 13.0957 23.7772 13.2905 23.5841C13.4852 23.3911 13.7494 23.2826 14.0248 23.2826H16.794C17.0694 23.2826 17.3336 23.3911 17.5283 23.5841C17.7231 23.7772 17.8325 24.039 17.8325 24.312C17.8325 24.5851 17.7231 24.8469 17.5283 25.0399C17.3336 25.233 17.0694 25.3415 16.794 25.3415H14.0248C13.7494 25.3415 13.4852 25.233 13.2905 25.0399C13.0957 24.8469 12.9863 24.5851 12.9863 24.312ZM35.1402 24.312C35.1402 24.039 35.2496 23.7772 35.4443 23.5841C35.6391 23.3911 35.9032 23.2826 36.1786 23.2826H38.9479C39.2233 23.2826 39.4874 23.3911 39.6822 23.5841C39.8769 23.7772 39.9863 24.039 39.9863 24.312C39.9863 24.5851 39.8769 24.8469 39.6822 25.0399C39.4874 25.233 39.2233 25.3415 38.9479 25.3415H36.1786C35.9032 25.3415 35.6391 25.233 35.4443 25.0399C35.2496 24.8469 35.1402 24.5851 35.1402 24.312ZM36.9125 13.9767C37.107 14.1698 37.2162 14.4314 37.2162 14.7042C37.2162 14.977 37.107 15.2386 36.9125 15.4316L34.1433 18.1767C34.0482 18.2779 33.9335 18.359 33.8062 18.4153C33.6788 18.4715 33.5413 18.5018 33.4018 18.5042C33.2624 18.5067 33.1239 18.4812 32.9946 18.4295C32.8653 18.3777 32.7478 18.3006 32.6492 18.2029C32.5506 18.1051 32.4728 17.9887 32.4206 17.8605C32.3684 17.7323 32.3427 17.595 32.3452 17.4568C32.3477 17.3186 32.3782 17.1823 32.4349 17.056C32.4917 16.9297 32.5735 16.8161 32.6756 16.7218L35.4448 13.9767C35.6395 13.784 35.9034 13.6757 36.1786 13.6757C36.4538 13.6757 36.7178 13.784 36.9125 13.9767ZM16.0602 13.9767C16.2549 13.784 16.5188 13.6757 16.794 13.6757C17.0692 13.6757 17.3332 13.784 17.5279 13.9767L20.2971 16.7218C20.4805 16.917 20.5804 17.1751 20.5756 17.4418C20.5709 17.7085 20.4619 17.9629 20.2717 18.1515C20.0814 18.3401 19.8247 18.4482 19.5557 18.4529C19.2866 18.4576 19.0263 18.3586 18.8294 18.1767L16.0602 15.4316C15.8657 15.2386 15.7565 14.977 15.7565 14.7042C15.7565 14.4314 15.8657 14.1698 16.0602 13.9767ZM20.2971 30.4473C20.4916 30.6403 20.6008 30.902 20.6008 31.1748C20.6008 31.4476 20.4916 31.7092 20.2971 31.9022L17.5279 34.6473C17.331 34.8292 17.0706 34.9282 16.8016 34.9235C16.5326 34.9187 16.2759 34.8107 16.0856 34.6221C15.8954 34.4335 15.7864 34.1791 15.7816 33.9124C15.7769 33.6457 15.8767 33.3876 16.0602 33.1924L18.8294 30.4473C19.0241 30.2546 19.2881 30.1463 19.5633 30.1463C19.8384 30.1463 20.1024 30.2546 20.2971 30.4473ZM32.6756 30.4473C32.8703 30.2546 33.1342 30.1463 33.4094 30.1463C33.6846 30.1463 33.9485 30.2546 34.1433 30.4473L36.9125 33.1924C37.0145 33.2867 37.0963 33.4003 37.1531 33.5266C37.2099 33.6529 37.2404 33.7892 37.2428 33.9274C37.2453 34.0656 37.2197 34.2029 37.1674 34.3311C37.1152 34.4593 37.0375 34.5757 36.9388 34.6735C36.8402 34.7712 36.7228 34.8483 36.5935 34.9001C36.4642 34.9518 36.3257 34.9772 36.1862 34.9748C36.0468 34.9724 35.9093 34.9421 35.7819 34.8859C35.6545 34.8296 35.5399 34.7485 35.4448 34.6473L32.6756 31.9022C32.4811 31.7092 32.3719 31.4476 32.3719 31.1748C32.3719 30.902 32.4811 30.6403 32.6756 30.4473ZM26.4863 17.7924C24.742 17.7924 23.0692 18.4793 21.8357 19.702C20.6023 20.9246 19.9094 22.5829 19.9094 24.312C19.9094 26.0411 20.6023 27.6994 21.8357 28.9221C23.0692 30.1448 24.742 30.8316 26.4863 30.8316C28.2306 30.8316 29.9035 30.1448 31.1369 28.9221C32.3703 27.6994 33.0633 26.0411 33.0633 24.312C33.0633 22.5829 32.3703 20.9246 31.1369 19.702C29.9035 18.4793 28.2306 17.7924 26.4863 17.7924Z" fill="#EFF1F3"/>
</g>
<defs>
<clipPath id="clip0_3232_6705">
<rect width="15.6" height="28.2353" fill="white" transform="translate(7.90039 10.1953)"/>
</clipPath>
<clipPath id="clip1_3232_6705">
<rect width="18" height="32.9412" fill="white" transform="translate(25.1016 7.84375)"/>
</clipPath>
</defs>
</svg>
